<?xml version="1.0" encoding="UTF-8"?>
<svg width="558px" height="453px" viewBox="0 0 558 453" version="1.1" xmlns="http://www.w3.org/2000/svg" xmlns:xlink="http://www.w3.org/1999/xlink">
    <!-- Generator: Sketch 49.1 (51147) - http://www.bohemiancoding.com/sketch -->
    <title>iot-hero</title>
    <desc>Created with Sketch.</desc>
    <defs>
        <polygon id="path-1" points="0.20271684 0.198364727 9.4910421 0.198364727 9.4910421 9.48210882 0.20271684 9.48210882"></polygon>
        <polygon id="path-3" points="7.97696492 0.428339537 0.913943719 85.3701313 10.6237368 96.5836939 19.6326106 85.1949015 12.5592817 0.428339537"></polygon>
        <polygon id="path-5" points="7.97696492 0.428339537 0.913943719 85.3701313 10.6237368 96.5836939 19.6326106 85.1949015 12.5592817 0.428339537"></polygon>
        <polygon id="path-7" points="7.97696492 0.428339537 0.913943719 85.3701313 10.6237368 96.5836939 19.6326106 85.1949015 12.5592817 0.428339537"></polygon>
        <polygon id="path-9" points="7.97696492 0.428339537 0.913943719 85.3701313 10.6237368 96.5836939 19.6326106 85.1949015 12.5592817 0.428339537"></polygon>
        <polygon id="path-11" points="7.97696492 0.428339537 0.913943719 85.3701313 10.6237368 96.5836939 19.6326106 85.1949015 12.5592817 0.428339537"></polygon>
        <polygon id="path-13" points="7.97696492 0.428339537 0.913943719 85.3701313 10.6237368 96.5836939 19.6326106 85.1949015 12.5592817 0.428339537"></polygon>
        <polygon id="path-15" points="7.97696492 0.428339537 0.913943719 85.3701313 10.6237368 96.5836939 19.6326106 85.1949015 12.5592817 0.428339537"></polygon>
        <polygon id="path-17" points="7.97696492 0.428339537 0.913943719 85.3701313 10.6237368 96.5836939 19.6326106 85.1949015 12.5592817 0.428339537"></polygon>
        <polygon id="path-19" points="7.97696492 0.428339537 0.913943719 85.3701313 10.6237368 96.5836939 19.6326106 85.1949015 12.5592817 0.428339537"></polygon>
        <polygon id="path-21" points="0.173039263 0.396271337 69.2749976 0.396271337 69.2749976 48.6287917 0.173039263 48.6287917"></polygon>
    </defs>
    <g id="Page-1" stroke="none" stroke-width="1" fill="none" fill-rule="evenodd">
        <g id="Desktop-HD-Copy" transform="translate(-720.000000, -119.000000)">
            <g id="iot-hero" transform="translate(720.000000, 118.157594)">
                <g id="Group-174" transform="translate(0.000000, 13.347243)">
                    <path d="M115.468772,144.120449 C108.821492,127.316712 92.4415132,115.422846 73.2727462,115.422846 C50.3279487,115.422846 31.3722062,132.457932 28.3360348,154.568956 C27.5205862,154.492222 26.6959754,154.448701 25.8610568,154.448701 C11.5781093,154.448701 0.000343587864,166.026466 0.000343587864,180.309414 C0.000343587864,194.591216 11.5781093,206.170127 25.8610568,206.170127 L113.112904,206.170127 C130.275118,206.170127 144.186991,192.257109 144.186991,175.096041 C144.186991,158.727515 131.528069,145.325297 115.468772,144.120449" id="Fill-1" fill="#EEF1FF"></path>
                    <path d="M216.153874,20.7279687 C211.398618,8.70353872 199.677691,0.195157907 185.962808,0.195157907 C169.545035,0.195157907 155.982477,12.3833647 153.808711,28.2044406 C153.226902,28.1483213 152.635931,28.1173983 152.038088,28.1173983 C141.819785,28.1173983 133.534736,36.402447 133.534736,46.6207501 C133.534736,56.8401985 141.819785,65.1252472 152.038088,65.1252472 L214.469148,65.1252472 C226.747833,65.1252472 236.701574,55.1703615 236.701574,42.8916765 C236.701574,31.1787662 227.644598,21.5892289 216.153874,20.7279687" id="Fill-3" fill="#F5F7FC"></path>
                    <path d="M447.391141,111.975056 C444.438576,104.508892 437.16024,99.2256556 428.643842,99.2256556 C418.44959,99.2256556 410.028251,106.793751 408.679096,116.618073 C408.317184,116.582569 407.949545,116.564244 407.57847,116.564244 C401.233547,116.564244 396.088892,121.707755 396.088892,128.053823 C396.088892,134.398745 401.233547,139.543401 407.57847,139.543401 L446.345489,139.543401 C453.969703,139.543401 460.151994,133.362255 460.151994,125.73804 C460.151994,118.465431 454.526316,112.511053 447.391141,111.975056" id="Fill-5" fill="#F8FAFF"></path>
                    <path d="M535.27897,158.918664 C530.433235,146.667466 518.490121,137.995308 504.515258,137.995308 C487.784819,137.995308 473.965715,150.41601 471.750719,166.537152 C471.157457,166.481033 470.555033,166.448965 469.945737,166.448965 C459.532734,166.448965 451.090781,174.890919 451.090781,185.303922 C451.090781,195.71807 459.532734,204.158878 469.945737,204.158878 L533.562176,204.158878 C546.0745,204.158878 556.218359,194.016164 556.218359,181.50384 C556.218359,169.569888 546.989589,159.798249 535.27897,158.918664" id="Fill-7" fill="#EEF1FF"></path>
                    <path d="M103.439875,64.3726753 C100.97406,65.6038651 97.9768282,64.6028791 96.7456384,62.1370636 C95.5155938,59.671248 96.5165798,56.6740165 98.9823954,55.4428267 C101.449356,54.2116368 104.445442,55.2126228 105.676632,57.6784384 C106.906677,60.1453992 105.905691,63.1414854 103.439875,64.3726753" id="Fill-9" fill="#FBB040"></path>
                    <path d="M105.146591,48.1294444 C102.127599,47.1204414 98.7260788,47.2613124 95.6612751,48.7914237 C92.5964713,50.3203897 90.4398848,52.9545634 89.4308818,55.9724101 L84.0606035,54.1788814 C85.5277236,49.7843927 88.6681167,45.9510974 93.1313231,43.7235027 C97.5933842,41.4959081 102.546776,41.2909007 106.940119,42.7591661 L105.146591,48.1294444 Z" id="Fill-11" fill="#B8D188"></path>
                    <path d="M109.145037,36.1593014 C103.061241,34.1264065 96.2020824,34.4104391 90.022082,37.4958582 C83.8432269,40.5789866 79.4945498,45.8897097 77.4628002,51.9746508 L72.0925219,50.1811221 C74.5846792,42.7206843 79.9160176,36.208549 87.49213,32.4267919 C95.0693877,28.6438895 103.479273,28.2968657 110.938566,30.7901683 L109.145037,36.1593014 Z" id="Fill-13" fill="#B8D188"></path>
                    <path d="M112.953365,24.7605449 C103.949072,21.7530058 93.7983417,22.172183 84.6520327,26.7373204 C75.5080144,31.3024578 69.0726137,39.1614576 66.0650745,48.1668955 L60.6753262,46.3664951 C64.1444184,35.979834 71.5659163,26.9159861 82.1129184,21.6510747 C92.6610658,16.3861634 104.36825,15.9017045 114.75262,19.3707966 L112.953365,24.7605449 Z" id="Fill-15" fill="#B8D188"></path>
                    <path d="M420.625532,41.1744244 C423.389124,30.2437491 416.539127,19.1366987 405.398863,16.787703 C395.171398,14.6299713 384.742361,21.0573549 382.053213,31.1576928 C380.273428,37.845058 382.115059,44.6171748 386.348061,49.4377125 C387.976668,51.2907964 388.598562,53.8196031 387.993847,56.2121199 L386.472898,62.2237622 C385.526886,65.9665794 387.334158,66.7396521 393.228981,68.2308234 C398.205278,69.4895003 401.049041,70.3301452 402.017958,66.5014311 L403.598463,60.2527132 C404.228374,57.7605559 406.070005,55.7952333 408.468248,54.8698366 C414.294353,52.6239173 418.978601,47.687705 420.625532,41.1744244" id="Fill-17" fill="#FFC98F"></path>
                    <path d="M398.010464,75.2513542 L385.819967,72.1682258 C384.993065,71.9586372 384.486846,71.1111205 384.696434,70.284219 C384.906023,69.4561722 385.75354,68.9510981 386.581586,69.1595414 L398.770939,72.2438151 C399.598985,72.4522584 400.104059,73.2997751 399.895616,74.1278219 C399.686028,74.9547234 398.838511,75.4609428 398.010464,75.2513542" id="Fill-19" fill="#FFC98F"></path>
                    <path d="M393.477395,79.9157885 L388.45414,78.6456587 C387.627239,78.4360701 387.121019,77.5874081 387.330608,76.7605066 C387.539051,75.9336052 388.387713,75.428531 389.214615,75.6369743 L394.237869,76.9082494 C395.065916,77.1166927 395.57099,77.9642095 395.362547,78.7922562 C395.152958,79.6191577 394.305442,80.1253771 393.477395,79.9157885" id="Fill-21" fill="#FFC98F"></path>
                    <path d="M56.1025154,216.098327 C55.8642944,214.619754 56.8687163,213.228223 58.3461441,212.990003 C59.8247172,212.750636 61.2162481,213.755058 61.4556143,215.233631 C61.6938352,216.711059 60.6894134,218.103735 59.2108402,218.341956 C57.7334124,218.581322 56.3407363,217.575755 56.1025154,216.098327 M65.1789614,214.632353 C64.9395952,213.154925 65.9440171,211.762249 67.4225902,211.524028 C68.900018,211.284661 70.2926942,212.290229 70.5309151,213.767656 C70.7702813,215.24623 69.7647141,216.63776 68.2872863,216.877127 C66.8087132,217.115348 65.4171824,216.110926 65.1789614,214.632353 M74.2542622,213.165232 C74.0160413,211.687805 75.0204632,210.297419 76.497891,210.058053 C77.9764641,209.819832 79.3668497,210.824254 79.6062159,212.301682 C79.8444368,213.780255 78.8411602,215.17064 77.3614418,215.410006 C75.884014,215.648227 74.4936284,214.643805 74.2542622,213.165232 M83.329563,211.700403 C83.0901968,210.22183 84.0946187,208.830299 85.5731918,208.590933 C87.0506196,208.352712 88.4432957,209.357134 88.6815167,210.835707 C88.9208829,212.313134 87.9153157,213.705811 86.4378879,213.944032 C84.9593148,214.183398 83.5677839,213.177831 83.329563,211.700403 M92.4048638,210.234428 C92.1666429,208.757 93.1710647,207.364324 94.6496379,207.126103 C96.1270657,206.886737 97.5197418,207.892304 97.7579627,209.369732 C97.9961837,210.848305 96.9917618,212.239836 95.514334,212.478057 C94.0357609,212.717423 92.64423,211.713001 92.4048638,210.234428 M101.48131,208.768453 C101.241944,207.291025 102.247511,205.899494 103.724939,205.660128 C105.203512,205.421907 106.595043,206.426329 106.834409,207.903757 C107.07263,209.38233 106.068208,210.773861 104.589635,211.013227 C103.112207,211.251448 101.719531,210.247026 101.48131,208.768453 M52.2554766,210.753246 L54.1326116,222.382549 C54.4750542,224.503632 56.472445,225.94441 58.5935274,225.601968 L107.462029,217.708609 C109.581966,217.365021 111.02389,215.368776 110.681448,213.248839 L108.804313,201.619535 C108.460725,199.499598 106.464479,198.057674 104.343397,198.400117 L55.4737496,206.293475 C53.3538124,206.635918 51.9118887,208.632163 52.2554766,210.753246" id="Fill-23" fill="#91CFE5"></path>
                    <path d="M58.4658272,209.866331 C59.3774804,209.718588 60.0028103,208.852747 59.8562128,207.939948 L56.670008,188.21915 C56.5234105,187.306352 55.6564238,186.681022 54.7447707,186.828764 C53.8319722,186.975362 53.2066423,187.842349 53.3543851,188.752856 L56.5394446,208.475945 C56.6871874,209.387598 57.5530288,210.014074 58.4658272,209.866331" id="Fill-25" fill="#91CFE5"></path>
                    <path d="M102.796679,202.70596 C103.709477,202.558217 104.334807,201.69123 104.187064,200.779577 L101.002005,181.057634 C100.854262,180.14598 99.9872753,179.520651 99.0756222,179.667248 C98.1639691,179.814991 97.5374939,180.681978 97.6852366,181.592485 L100.870296,201.315574 C101.018039,202.227227 101.885026,202.852557 102.796679,202.70596" id="Fill-27" fill="#91CFE5"></path>
                    <path d="M527.709271,137.479125 C527.067907,137.279844 526.388748,137.638321 526.189467,138.278539 L522.057251,151.57539 C521.961046,151.882328 521.993114,152.215608 522.143147,152.500786 C522.293181,152.785964 522.548581,153.000134 522.856665,153.095193 L544.291967,159.756217 L558.018302,146.898014 L527.709271,137.479125 Z" id="Fill-29" fill="#DDBFA8"></path>
                    <g id="Group-33" transform="translate(548.595290, 151.178660)">
                        <mask id="mask-2" fill="white">
                            <use xlink:href="#path-1"></use>
                        </mask>
                        <g id="Clip-32"></g>
                        <path d="M8.63665362,0.335799873 L8.19342527,0.198364727 L0.20271684,7.683999 L5.81121608,9.42713476 C5.93032654,9.46378413 6.05058229,9.48210882 6.17198334,9.48210882 C6.36782842,9.48210882 6.56138292,9.43515181 6.73775802,9.34238309 C7.02179065,9.19234972 7.23596042,8.93580412 7.33101973,8.62772033 L9.43606805,1.85560353 C9.63534901,1.21538481 9.27801763,0.535080834 8.63665362,0.335799873" id="Fill-31" fill="#DDBFA8" mask="url(#mask-2)"></path>
                    </g>
                    <path d="M532.01981,158.484713 L531.742649,159.37575 C531.543368,160.017115 531.900699,160.697418 532.542063,160.895554 L539.483683,163.053286 C539.601649,163.089935 539.72305,163.10826 539.844451,163.10826 C540.03915,163.10826 540.23385,163.061303 540.40908,162.968534 C540.694258,162.818501 540.908428,162.561955 541.003487,162.253872 L541.280648,161.362834 L532.01981,158.484713 Z" id="Fill-34" fill="#DDBFA8"></path>
                    <path d="M534.302607,163.986356 L534.216711,164.29673 L525.55486,164.29673 C525.307477,161.804573 523.200138,159.851849 520.642699,159.851849 L519.724174,159.851849 C519.054178,159.851849 518.511309,160.394718 518.511309,161.065859 L518.511309,170.086186 C518.511309,170.757328 519.054178,171.301342 519.724174,171.301342 L520.642699,171.301342 C523.243659,171.301342 525.379631,169.278754 525.565168,166.724751 L535.138671,166.724751 C535.684976,166.724751 536.162563,166.360548 536.309161,165.834859 L536.621826,164.706745 L534.302607,163.986356 Z" id="Fill-36" fill="#DDBFA8"></path>
                    <path d="M471.96466,108.836724 L471.425227,111.730879 C471.325586,112.264586 471.677191,112.776532 472.209752,112.876172 L479.930172,114.315806 C480.462733,114.415446 480.974679,114.062696 481.074319,113.53128 L481.614897,110.634834 L471.96466,108.836724 Z" id="Fill-38" fill="#AD9BBC"></path>
                    <path d="M502.843932,114.59331 L502.303353,117.48861 C502.204858,118.021172 502.556463,118.533117 503.089024,118.632758 L510.809444,120.072391 C511.342005,120.172032 511.853951,119.820427 511.953591,119.287865 L512.49417,116.392565 L502.843932,114.59331 Z" id="Fill-40" fill="#AD9BBC"></path>
                    <path d="M507.783007,109.523442 C506.71674,109.324161 506.014675,108.300269 506.212811,107.234002 C506.412092,106.167734 507.437129,105.464524 508.503396,105.663805 C509.569664,105.863086 510.271729,106.886978 510.072448,107.953245 C509.874312,109.019513 508.849275,109.722723 507.783007,109.523442 Z M478.834584,104.125677 C477.768317,103.927541 477.065107,102.902504 477.264388,101.836236 C477.462524,100.769968 478.487561,100.067904 479.553828,100.26604 C480.618951,100.465321 481.322161,101.490358 481.124025,102.556625 C480.924744,103.622893 479.899707,104.324958 478.834584,104.125677 Z M485.678855,86.1148008 C485.883862,85.7448712 486.301894,85.5478808 486.717635,85.6257607 L507.095832,89.4246972 C507.511573,89.5025771 507.83111,89.8370026 507.888374,90.2561798 L509.208897,99.8044866 L481.00606,94.546447 L485.678855,86.1148008 Z M513.857641,104.371915 L511.307073,100.653149 L509.8285,89.9847454 C509.655561,88.731795 508.700387,87.7296637 507.455453,87.4948787 L487.077257,83.6959422 C485.833469,83.4657383 484.580519,84.0567095 483.966642,85.1630624 L478.742961,94.581951 L475.02305,97.1336636 C474.379395,97.5746013 473.937312,98.25376 473.79415,99.0211063 L472.32474,106.906448 L512.853219,114.461945 L514.323775,106.578894 C514.466936,105.810402 514.298578,105.015569 513.857641,104.371915 Z" id="Fill-42" fill="#AD9BBC"></path>
                    <path d="M508.419446,80.6853108 C508.12167,80.6303368 507.86627,80.4402181 507.72769,80.1710743 C504.732749,74.3953623 497.623916,72.1402806 491.848204,75.1340762 C490.990379,75.5784499 490.190965,76.1270452 489.465995,76.7672639 C489.060561,77.1257405 488.439812,77.0868006 488.08019,76.6802216 C487.722859,76.2736426 487.760654,75.6528939 488.167232,75.2944172 C493.854757,70.2700174 502.539513,70.8071597 507.565058,76.4946842 C508.310644,77.3399103 508.949717,78.2721787 509.468535,79.2720194 C509.715918,79.755333 509.524654,80.3463041 509.041341,80.5925421 C508.850077,80.6910373 508.631326,80.7231055 508.419446,80.6853108" id="Fill-44" fill="#AD9BBC"></path>
                    <path d="M493.49147,81.8959999 C492.957764,81.7963594 492.607304,81.2832682 492.705799,80.750707 C492.750466,80.5136314 492.881029,80.3006069 493.072293,80.1540095 C496.077541,77.837082 500.39186,78.3948396 502.708787,81.4012334 C502.864547,81.6028049 503.008854,81.8123935 503.140563,82.0299992 C503.417723,82.4961334 503.264254,83.0985574 502.799265,83.3757183 C502.338858,83.6494433 501.744451,83.5039911 501.462708,83.0493099 C500.056289,80.7323824 497.038442,79.9936684 494.720369,81.4000881 C494.564609,81.4951474 494.415721,81.5982238 494.271414,81.7081719 C494.049228,81.8788205 493.765195,81.9475381 493.49147,81.8959999" id="Fill-46" fill="#AD9BBC"></path>
                    <path d="M196.469153,43.6231751 C196.540161,44.1809327 196.142744,44.6917333 195.586132,44.7615962 L174.624982,47.4026416 C174.066079,47.4736497 173.555278,47.0773784 173.485415,46.5196208 L171.962176,34.4299091 C171.891168,33.8721515 172.288584,33.3602056 172.846342,33.2903427 L193.807492,30.648152 C194.364104,30.5782892 194.874905,30.9757058 194.945913,31.5334634 L196.469153,43.6231751 Z M188.764768,55.7827496 L183.964845,56.3886095 L183.478096,52.5232461 L188.278018,51.9196767 L188.764768,55.7827496 Z M189.277859,59.8485393 L184.476791,60.4543993 L184.184741,58.1363265 L188.985809,57.5327571 L189.277859,59.8485393 Z M196.242385,26.1540228 L169.372668,29.5395085 C168.132316,29.6952683 167.249295,30.8325442 167.406201,32.0717511 L169.506668,48.7403437 C169.647539,49.863876 170.582098,50.919836 171.679288,51.1992875 L176.938473,52.5266819 C177.319856,52.6240318 177.744759,53.1039095 177.794007,53.496745 L181.13139,79.9793523 C181.154296,80.1557274 181.235612,80.3046155 181.295167,80.4649565 L177.934878,80.8887148 C177.073618,80.9963724 176.462031,81.7854792 176.570834,82.6467394 L176.96596,85.7779701 C177.073618,86.6380851 177.862725,87.2508168 178.723985,87.142014 L201.471792,84.2753459 C202.333052,84.1665431 202.944639,83.3774363 202.836981,82.5173213 L202.443,79.3872359 C202.333052,78.5259756 201.545091,77.9132439 200.684976,78.0220468 L197.323541,78.4446598 C197.341866,78.2751565 197.384242,78.1102343 197.362481,77.9338592 L194.025098,51.4501066 C193.97585,51.0584165 194.2679,50.4880606 194.616069,50.3002326 L199.378197,47.7072895 C200.372311,47.165566 201.015965,45.9114702 200.875094,44.7879379 L198.774627,28.1193453 C198.617722,26.8789932 197.482737,25.9971176 196.242385,26.1540228 Z" id="Fill-48" fill="#93CCA7"></path>
                    <path d="M57.092392,99.5138113 L69.2462401,137.394373 L95.4345071,128.991359 L83.2795137,91.1107974 L57.092392,99.5138113 Z M67.6623,140.477502 L54.0092636,97.9287259 L84.8657444,88.0276689 L98.5176355,130.576445 L67.6623,140.477502 Z" id="Fill-50" fill="#C2B59B"></path>
                    <polygon id="Fill-52" fill="#FFFFFF" points="57.092392 99.5132386 69.2462401 137.392655 95.4345071 128.989641 83.2795137 91.1102247"></polygon>
                    <polygon id="Fill-54" fill="#C2B59B" points="86.3935651 113.63825 67.6668812 119.646457 67.15379 118.048773 85.8804739 112.039421"></polygon>
                    <polygon id="Fill-56" fill="#C2B59B" points="84.7348374 117.666818 71.3612524 121.95823 70.8481612 120.360547 84.2217462 116.067989"></polygon>
                    <path d="M82.7776464,128.106506 L79.0268122,129.310209 L78.9569493,129.092603 L79.2593067,128.506213 L78.8710524,127.296784 C78.7622495,126.960068 78.7702666,126.627933 78.8928129,126.303815 C79.0176499,125.978552 79.2249479,125.728878 79.5181428,125.551358 L79.4711858,125.405906 C79.4414082,125.309701 79.44828,125.219223 79.4940917,125.136762 C79.5399034,125.054301 79.608621,124.997036 79.7013897,124.967258 C79.7953037,124.937481 79.882346,124.943207 79.9636618,124.985583 C80.0461229,125.027959 80.1022422,125.096676 80.1331651,125.192881 L80.1789768,125.338333 C80.5271459,125.310846 80.8455373,125.392162 81.1352964,125.584571 C81.4250555,125.775835 81.6243365,126.041543 81.7331393,126.378259 L82.1213936,127.587688 L82.7077835,127.890046 L82.7776464,128.106506 Z M81.3826797,129.140706 C81.3231244,129.25409 81.2337916,129.330824 81.1146811,129.369764 C80.9932801,129.408704 80.8764602,129.398397 80.7630762,129.339987 C80.6496922,129.280431 80.5729576,129.193389 80.5363082,129.076569 L81.4147479,128.794827 C81.4525425,128.911647 81.4410896,129.027322 81.3826797,129.140706 Z M71.623639,126.284345 L73.7779349,132.998052 L89.1924318,128.051532 L87.0381359,121.338971 L71.623639,126.284345 Z" id="Fill-58" fill="#BE1E2D"></path>
                    <path d="M79.8046951,109.362414 L70.5369851,112.336739 L70.0914662,110.944063 C69.8669888,110.24658 70.2151578,109.512447 71.134828,108.737084 C72.0533529,107.961721 72.9993648,107.419997 73.9705732,107.107332 C74.9429268,106.795812 76.0275192,106.68701 77.2254956,106.783214 C78.4234719,106.878274 79.1346988,107.274545 79.3580309,107.969738 L79.8046951,109.362414 Z M70.8084195,102.411631 C71.0844351,101.875634 71.5127747,101.513722 72.0922929,101.328184 C72.6718111,101.141501 73.230714,101.186168 73.7678563,101.462184 C74.3027081,101.738199 74.6646207,102.165393 74.8513034,102.746057 C75.0368409,103.325575 74.9921744,103.884478 74.7161589,104.42162 C74.4401433,104.956472 74.0118037,105.318385 73.4322855,105.505067 C72.8527673,105.690605 72.2938644,105.645938 71.7578673,105.371068 C71.2218703,105.093907 70.8599577,104.665568 70.673275,104.087195 C70.4877375,103.506531 70.532404,102.947628 70.8084195,102.411631 Z M63.8851241,102.168829 L67.9520591,114.84264 L83.366556,109.897266 L79.3007663,97.2223093 L63.8851241,102.168829 Z" id="Fill-60" fill="#9B8579"></path>
                    <path d="M401.307648,204.158878 C401.307648,268.753397 348.941421,321.119623 284.348048,321.119623 C219.752384,321.119623 167.388449,268.753397 167.388449,204.158878 C167.388449,139.56436 219.752384,87.1981333 284.348048,87.1981333 C348.941421,87.1981333 401.307648,139.56436 401.307648,204.158878" id="Fill-62" fill="#CDD4DA"></path>
                    <path d="M348.019117,424.92416 C348.019117,433.13591 321.432288,439.792352 288.635681,439.792352 C255.841365,439.792352 229.254536,433.13591 229.254536,424.92416 C229.254536,416.71241 255.841365,410.055967 288.635681,410.055967 C321.432288,410.055967 348.019117,416.71241 348.019117,424.92416" id="Fill-64" fill="#F1F2F2"></path>
                    <path d="M134.615549,255.81216 C135.232862,255.324265 136.066635,254.97266 137.155809,254.800866 C143.296869,253.83882 148.966069,259.719899 147.874605,265.800259 C147.11184,270.189021 141.582366,272.097079 138.336606,269.431983 C135.088555,266.764596 130.856698,258.779614 134.615549,255.81216" id="Fill-66" fill="#C0D6DB"></path>
                    <path d="M289.76242,321.093854 C289.639874,320.908317 289.505875,320.730796 289.361568,320.561293 C286.4949,317.207875 282.014514,315.000896 277.862827,313.834988 C274.617067,312.923335 267.636507,311.414984 266.586273,316.197727 C265.506262,321.11676 271.155992,325.967075 274.354795,328.719214 C277.798691,331.683232 284.24898,336.634333 288.45106,332.00964 C290.800056,329.424714 291.786153,324.173547 289.76242,321.093854" id="Fill-68" fill="#203F61"></path>
                    <path d="M285.623103,315.839365 C285.036713,316.034065 254.58223,320.133068 246.577778,319.547823 L250.676781,336.143117 L298.117103,324.429061 L285.623103,315.839365 Z" id="Fill-70" fill="#C0D6DB"></path>
                    <path d="M241.622096,373.808708 C243.964219,368.536924 245.135854,362.485197 245.721099,356.824014 C246.893879,348.429017 246.893879,337.691897 245.526399,329.687445 C244.982385,325.987003 243.708819,320.288026 241.573993,316.845276 C242.048144,316.765105 242.571543,316.696387 243.136173,316.640268 C245.793252,319.79555 247.331381,326.504676 247.945258,330.675832 C249.311592,338.680284 249.311592,349.417405 248.138812,357.812402 C247.554713,363.47473 246.381933,369.526457 244.039809,374.797095 C241.838556,379.070183 238.768026,382.130406 235.191276,384.738238 C234.319708,384.528649 233.559234,384.1633 232.902981,383.658226 C236.424756,381.069864 239.44833,378.030257 241.622096,373.808708" id="Fill-72" fill="#1A2121"></path>
                    <path d="M244.040152,374.797439 C246.382276,369.525656 247.553911,363.473928 248.139156,357.812745 C249.311936,349.417749 249.311936,338.680628 247.944456,330.676176 C247.331724,326.505019 245.79245,319.795894 243.136516,316.640612 C246.891932,316.262665 252.311458,316.384066 254.973118,317.010541 C260.438456,318.376876 252.239304,322.475879 252.435149,326.966572 C252.825694,331.45612 258.877422,330.090931 262.19648,330.285631 C262.58588,332.238355 262.781725,335.360424 261.415391,336.533204 C259.658511,338.290083 258.291032,336.727904 257.315242,339.071173 C256.339453,341.607996 257.120542,346.29339 256.924697,348.831359 C256.924697,352.540962 256.924697,356.639966 256.143608,360.545414 C254.190883,369.720356 248.530846,384.557625 237.207335,384.94817 C236.473202,384.96993 235.808932,384.887469 235.190474,384.738581 C238.767224,382.129604 241.838899,379.069381 244.040152,374.797439" id="Fill-74" fill="#2F3535"></path>
                    <path d="M232.625247,349.409732 L238.192516,347.127163 L246.569188,343.693575 C246.568043,348.235806 246.282865,352.798653 245.721671,356.824358 C245.136427,362.48554 243.963647,368.537268 241.621523,373.809051 C239.447757,378.029455 236.424184,381.070208 232.902408,383.657425 C225.503816,377.955011 231.099717,355.512997 232.625247,349.409732" id="Fill-76" fill="#576C6D"></path>
                    <path d="M238.051989,340.656716 L246.38743,337.675519 C246.505395,339.648858 246.569532,341.662283 246.569532,343.692888 L238.19286,347.126476 C238.081766,345.294007 238.235235,342.596842 238.051989,340.656716" id="Fill-78" fill="#4B5455"></path>
                    <path d="M238.051989,340.656716 C238.049698,340.657862 238.047407,340.657862 238.046262,340.659007 L236.498971,341.212183 C235.606788,341.476746 234.865784,341.634796 233.87396,342.151323 C233.483415,336.684841 234.278249,318.767879 240.721666,317.010999 C240.979357,316.950299 241.270262,316.895325 241.573764,316.844932 C243.70859,320.287682 244.982156,325.98666 245.52617,329.687101 C245.945347,332.138028 246.220217,334.859244 246.38743,337.675519 L238.051989,340.656716 Z" id="Fill-80" fill="#576C6D"></path>
                    <path d="M232.20252,308.051602 C231.298884,307.783604 230.398683,307.493845 229.503064,307.178889 C221.747141,304.454237 213.939679,301.875038 206.202081,299.096557 C201.83966,297.528651 197.535649,295.831327 193.245382,294.080174 C183.802443,290.226264 172.048302,286.564763 164.339335,280.012542 C159.714643,276.157486 153.740795,270.955566 153.54724,264.789309 C153.354831,258.429498 160.597663,253.749831 166.268009,253.612396 C173.203902,253.444038 230.438769,270.184784 245.470738,272.689539 C259.730779,274.809476 268.401792,276.735859 282.662979,277.506641 C292.105919,278.085014 306.354507,275.56766 315.530594,274.057019 C328.718641,271.887834 335.875577,271.354128 344.741289,269.4266 C353.412301,267.500217 384.681087,260.436051 395.012774,259.201425 C403.577275,258.177533 407.045221,257.851125 413.320281,257.851125 C418.06752,257.851125 421.221657,260.164616 423.149185,262.283408 C429.123032,269.029183 413.129017,278.856941 409.466371,280.975733 C402.143368,285.216753 395.876325,288.116634 384.605498,292.345056 C373.036895,296.685716 361.56106,301.312699 349.790885,305.096747 C335.63392,309.648141 321.134512,312.34416 306.275482,313.070276 C288.178709,313.953296 269.750947,313.364616 251.73778,311.439379 C245.132876,310.733878 238.562331,309.934464 232.20252,308.051602" id="Fill-82" fill="#2E496F"></path>
                    <path d="M289.021988,277.506756 C289.021988,277.506756 289.115902,277.610977 289.291132,277.806822 C289.37932,277.905318 289.488123,278.025573 289.616395,278.166444 C289.717181,278.332512 289.835146,278.521485 289.96571,278.732219 C290.238289,279.161704 290.481092,279.708009 290.758252,280.342501 C291.046866,280.972412 291.272489,281.729451 291.53247,282.519703 C291.747785,283.336296 292.012348,284.242223 292.180706,285.199688 C292.378842,286.156007 292.532311,287.173028 292.633097,288.233569 C292.714413,289.292965 292.818634,290.392446 292.806036,291.507961 C292.830087,292.624622 292.776258,293.756171 292.729301,294.888866 C292.642259,296.016979 292.542619,297.143947 292.397167,298.24801 C292.270039,299.353217 292.071903,300.432083 291.881785,301.473154 C291.696247,302.515371 291.461462,303.511776 291.223241,304.450916 C290.996473,305.393492 290.739928,306.273077 290.516596,307.08738 C290.048171,308.71026 289.546533,310.028492 289.212107,310.952744 C288.846759,311.865542 288.63717,312.387796 288.63717,312.387796 C288.63717,312.387796 288.768879,311.841491 288.999083,310.886317 C289.125065,310.412165 289.246466,309.829211 289.402226,309.166087 C289.547678,308.500672 289.7126,307.748214 289.891266,306.92933 C290.055043,306.108155 290.247452,305.221698 290.406647,304.276831 C290.576151,303.33311 290.726184,302.33556 290.88767,301.303651 C291.046866,300.274033 291.175139,299.202039 291.298831,298.116301 C291.430539,297.030563 291.511855,295.92421 291.586299,294.816712 C291.645854,293.709214 291.713427,292.601716 291.700828,291.512542 C291.719153,290.419933 291.679068,289.349084 291.62982,288.312594 C291.554231,287.277249 291.488949,286.276263 291.359531,285.333687 C291.259891,284.383094 291.069772,283.519543 290.916303,282.697223 C290.694116,281.878339 290.566988,281.130462 290.35969,280.486808 C290.1627,279.840863 289.980599,279.268216 289.773301,278.842167 C289.67366,278.621126 289.585472,278.424135 289.509883,278.251196 C289.404516,278.092 289.316329,277.95571 289.24303,277.845762 C289.098723,277.624721 289.021988,277.506756 289.021988,277.506756" id="Fill-84" fill="#0E314F"></path>
                    <path d="M268.907782,313.240123 C269.127678,313.100397 271.993201,313.351216 272.348242,313.471472 C275.50925,314.550338 278.362175,316.031201 281.123476,317.888866 C285.001438,320.498989 287.955148,325.125972 287.683714,330.237414 C287.603543,331.735457 286.836197,333.052544 285.580956,333.900061 C285.580956,333.900061 407.064462,294.317594 420.685431,279.161933 C434.307544,264.007418 419.585949,257.317762 410.701913,257.874374 C409.248536,258.776865 407.79745,259.674775 406.315441,260.529163 C402.598965,262.670861 398.846986,264.750713 395.090425,266.820257 C389.352508,269.98012 383.585958,273.087299 377.739238,276.042155 C371.002625,279.447111 364.151483,282.620717 357.175505,285.50571 C349.644059,288.622052 341.985485,291.411986 334.308587,294.149236 C331.007853,295.326597 327.65329,296.171823 324.280402,297.122416 C319.715265,298.40858 315.135239,299.645496 310.566665,300.919062 C305.181498,302.421686 299.802058,303.942635 294.426053,305.481909 C289.42914,306.913525 284.439099,308.372628 279.469673,309.895867 C277.267275,310.57159 275.05915,311.233569 272.875077,311.966557 C271.61869,312.386879 269.127678,313.100397 268.907782,313.240123" id="Fill-86" fill="#385579"></path>
                    <path d="M288.156376,320.963062 C288.283504,320.78096 288.419793,320.60573 288.567536,320.439663 C291.506358,317.149236 296.0337,315.038461 300.209438,313.964177 C303.474668,313.121241 310.486151,311.764069 311.433309,316.568573 C312.405662,321.510512 306.652856,326.237135 303.396788,328.919411 C299.888756,331.808985 293.3331,336.620361 289.230661,331.90519 C286.93893,329.271016 286.067362,323.999233 288.156376,320.963062" id="Fill-88" fill="#203F61"></path>
                    <path d="M292.408734,315.799165 C292.990543,316.007608 323.348821,320.762864 331.364726,320.350559 L326.907246,336.853084 L279.731487,324.117427 L292.408734,315.799165 Z" id="Fill-90" fill="#EEEEEE"></path>
                    <path d="M335.146941,374.705701 C332.919347,369.38467 331.878275,363.308891 331.415577,357.636256 C330.424899,349.217208 330.657393,338.483523 332.196667,330.509994 C332.820851,326.822151 334.216963,321.151806 336.425088,317.756012 C335.953227,317.665534 335.430974,317.585364 334.86749,317.516646 C332.143983,320.614663 330.460403,327.28943 329.757193,331.446844 C328.217919,339.419227 327.98657,350.154057 328.976103,358.57196 C329.439947,364.244596 330.481018,370.32152 332.708613,375.641405 C334.817097,379.960305 337.8212,383.085809 341.340685,385.771521 C342.216834,385.580257 342.985326,385.230943 343.651886,384.740757 C340.18623,382.077951 337.229084,378.973062 335.146941,374.705701" id="Fill-92" fill="#1A2121"></path>
                    <path d="M332.708613,375.641863 C330.481018,370.320833 329.439947,364.245054 328.976103,358.572418 C327.98657,350.15337 328.217919,339.419685 329.757193,331.446156 C330.460403,327.288743 332.143983,320.613976 334.86749,317.517104 C331.120091,317.058987 325.700566,317.063568 323.026307,317.632779 C317.531191,318.880003 325.639865,323.155381 325.347815,327.641493 C324.859921,332.120734 318.840261,330.624981 315.517767,330.748673 C315.084846,332.692235 314.822574,335.809722 316.163712,337.011134 C317.882796,338.805808 319.282344,337.273407 320.207741,339.637291 C321.128556,342.19473 320.246681,346.861799 320.387552,349.404349 C320.307381,353.112807 320.219194,357.210665 320.914387,361.131003 C322.668975,370.347174 328.008331,385.303554 339.319243,385.938046 C340.054521,385.974696 340.719936,385.907123 341.340685,385.771979 C337.8212,383.086267 334.817097,379.960763 332.708613,375.641863" id="Fill-94" fill="#333E40"></path>
                    <path d="M344.668219,350.506922 L339.152489,348.104098 L330.852551,344.489553 C330.755201,349.031785 330.941884,353.599213 331.416035,357.63637 C331.878733,363.309006 332.918659,369.384785 335.147399,374.705815 C337.229542,378.972031 340.186688,382.07692 343.651199,384.740872 C351.172337,379.198799 346.062041,356.641111 344.668219,350.506922" id="Fill-96" fill="#576C6D"></path>
                    <path d="M339.412699,341.618533 L331.163154,338.464397 C331.002813,340.430864 330.895156,342.437418 330.85278,344.462295 L339.134393,348.069968 C339.283281,346.243226 339.189367,343.550642 339.412699,341.618533" id="Fill-98" fill="#4B5455"></path>
                    <path d="M339.412699,341.618533 C339.41499,341.619678 339.41728,341.619678 339.418426,341.620824 L340.950827,342.206068 C341.833848,342.488956 342.571417,342.66304 343.549497,343.199037 C344.056862,337.75546 343.647992,319.86484 337.259548,317.972816 C337.004148,317.907535 336.71668,317.845689 336.413177,317.790715 C334.209634,321.178491 332.816957,326.836238 332.193918,330.516064 C331.724348,332.950957 331.389922,335.658429 331.163154,338.464397 L339.412699,341.618533 Z" id="Fill-100" fill="#576C6D"></path>
                    <path d="M309.176509,313.562293 C308.958903,313.416841 306.088799,313.605815 305.731468,313.719199 C302.548699,314.729347 299.662561,316.14722 296.86232,317.945329 C292.928239,320.4707 289.876033,325.033547 290.03752,330.14957 C290.084477,331.649904 290.823191,332.98188 292.061252,333.856883 C292.061252,333.856883 171.460766,291.659712 158.168497,276.214293 C144.877373,260.768873 159.739839,254.398754 168.611278,255.147775 C170.044039,256.081189 171.475655,257.008876 172.93934,257.896478 C176.607713,260.117201 180.31388,262.278369 184.025775,264.428084 C189.693829,267.710493 195.391661,270.94251 201.171954,274.023347 C207.835268,277.57261 214.615402,280.892814 221.527245,283.92784 C228.989973,287.205668 236.586701,290.160524 244.202898,293.063841 C247.477291,294.311065 250.812384,295.228445 254.164656,296.252337 C258.700016,297.636996 263.252555,298.972407 267.792496,300.344468 C273.14445,301.962767 278.489531,303.599391 283.830032,305.254339 C288.796022,306.793613 293.75285,308.360373 298.689062,309.990125 C300.876571,310.71395 303.068662,311.422886 305.237847,312.202831 C306.48278,312.649495 308.958903,313.416841 309.176509,313.562293" id="Fill-102" fill="#375D80"></path>
                    <path d="M434.080547,255.81216 C433.463234,255.324265 432.629461,254.97266 431.540288,254.800866 C425.399227,253.83882 419.730027,259.719899 420.821491,265.800259 C421.584256,270.189021 427.113731,272.097079 430.359491,269.431983 C433.607541,266.764596 437.839398,258.779614 434.080547,255.81216" id="Fill-104" fill="#C0D6DB"></path>
                    <path d="M418.530677,262.365182 C423.493231,263.319211 440.7757,264.483974 440.7757,264.483974 C441.170826,265.274226 446.017706,268.281765 448.308292,269.618322 C450.98026,270.763615 454.034756,271.908908 456.897988,272.672818 C466.25045,274.963404 477.703379,270.190968 485.720429,265.228414 C487.629632,264.083121 494.120007,259.310686 492.01954,256.25619 C490.3016,253.584222 484.385017,259.50195 482.667078,260.647243 C476.176703,264.655768 468.350917,258.73804 462.433189,255.683543 C465.105157,253.584222 465.597633,255.013547 468.732299,255.302161 C473.046618,255.699577 474.840146,255.683543 477.51326,254.348132 C483.239724,251.675018 480.95601,245.500744 475.735765,246.925489 C473.335232,247.580596 470.450239,248.049021 467.968389,248.621667 C465.105157,249.384433 462.433189,248.430404 459.569956,248.621667 C453.270846,249.00305 448.540786,253.132976 444.108503,256.828836 C442.5154,258.156231 438.190774,257.974129 434.182249,257.401483 C429.601078,256.638718 424.443824,255.233443 420.052771,254.279414 L418.530677,262.365182 Z" id="Fill-106" fill="#FFD5C7"></path>
                    <path d="M466.006617,253.330425 C465.463748,253.809157 464.885375,254.226044 464.324182,254.674998 C463.746954,255.104483 463.162855,255.530532 462.565012,255.937111 L462.805523,255.585506 L462.696721,256.474254 C462.637165,256.767449 462.515764,257.053772 462.422996,257.344676 C462.311902,257.629854 462.133236,257.887545 461.985494,258.160125 C461.805683,258.409799 461.588077,258.629695 461.38536,258.862189 C461.156302,259.060325 460.919226,259.253879 460.67986,259.438272 C460.425605,259.595177 460.169059,259.752082 459.906787,259.888372 C459.373081,260.138046 458.831357,260.343053 458.282762,260.504539 C457.729585,260.64541 457.178699,260.76223 456.627814,260.854999 C456.073492,260.930588 455.524896,261.002742 454.975156,261.051989 C454.426561,261.09551 453.881401,261.145903 453.332806,261.172245 C452.784211,261.203168 452.244778,261.26845 451.690456,261.319988 C452.70175,260.854999 453.792068,260.578983 454.850319,260.308694 C455.912005,260.041841 456.967966,259.804765 457.96437,259.463468 C458.460282,259.293965 458.941305,259.104991 459.394841,258.875933 L460.041932,258.497986 L460.620305,258.050177 C460.776064,257.870366 460.953585,257.705443 461.099037,257.51647 C461.220438,257.314899 461.379634,257.129361 461.48271,256.912901 C461.567462,256.687278 461.686572,256.471963 461.751854,256.234887 L461.93052,255.504191 L461.993511,255.247645 L462.171031,255.15144 C462.786053,254.821596 463.414819,254.508931 464.050457,254.201993 C464.702128,253.912233 465.336621,253.590406 466.006617,253.330425" id="Fill-108" fill="#FFAB9A"></path>
                    <path d="M467.826373,264.957782 C469.724123,264.878756 471.621873,264.798586 473.521914,264.798586 C475.466622,260.527789 475.735765,259.105335 476.843264,256.731143 C477.39644,255.465594 479.05826,251.589923 481.115206,252.38132 C483.012956,253.172718 483.169862,257.601565 483.091982,259.105335 C483.012956,261.398211 482.616685,264.245409 481.115206,265.985109 C479.215165,268.200106 476.209917,269.228579 473.521914,269.940951 L467.826373,264.957782 Z" id="Fill-110" fill="#FFD5C7"></path>
                    <path d="M467.826373,264.957782 C468.77353,264.856996 469.721833,264.777971 470.670135,264.702381 C471.618438,264.631373 472.56674,264.535168 473.515043,264.487066 L473.237882,264.669168 L476.144635,257.041517 C476.384001,256.393281 476.648564,255.793148 476.964665,255.150639 C477.27733,254.523018 477.625499,253.90456 478.063001,253.317025 C478.507374,252.746669 479.01932,252.136228 479.870273,251.829289 C480.297467,251.683837 480.800251,251.681546 481.233171,251.83158 L481.315632,251.856776 L481.416418,251.906024 L481.44505,251.920913 L481.554999,251.985049 C481.636314,252.037733 481.688998,252.04575 481.790929,252.135082 C481.976466,252.287406 482.180328,252.4592 482.28455,252.617251 C482.79077,253.265487 483.038153,253.975568 483.214528,254.673051 C483.385177,255.372825 483.477945,256.072599 483.532919,256.771228 C483.584458,257.469857 483.607363,258.163904 483.561552,258.868259 C483.51574,259.563452 483.450458,260.228867 483.353108,260.932077 C483.137793,262.298411 482.815966,263.686506 482.103594,264.907389 C481.930655,265.215472 481.739391,265.508667 481.502315,265.77323 C481.296162,266.060699 481.019001,266.297774 480.770473,266.513089 C480.296322,266.999839 479.670992,267.344572 479.104072,267.708775 C479.620599,267.256384 480.147434,266.861258 480.58379,266.325261 C480.822011,266.06757 481.040762,265.838512 481.202248,265.549898 C481.395803,265.283045 481.543546,264.988704 481.671818,264.685202 C481.944398,264.088504 482.1265,263.451721 482.281114,262.810357 C482.423131,262.164412 482.510173,261.503578 482.570873,260.841599 C482.61783,260.194508 482.641882,259.502752 482.641882,258.840772 C482.630429,258.185665 482.59836,257.52025 482.525062,256.866287 C482.451763,256.21118 482.341815,255.562944 482.168876,254.947922 C481.994791,254.339771 481.766878,253.740783 481.422145,253.322751 C481.336248,253.194478 481.261804,253.163555 481.198812,253.085676 C481.183924,253.050171 481.068249,253.003214 481.006403,252.964275 L480.894165,252.902429 L480.867823,252.886395 L480.852934,252.878378 L480.846062,252.874942 C480.876985,252.888685 480.768182,252.838292 480.912489,252.905865 L480.872404,252.898993 C480.658234,252.832566 480.454372,252.833711 480.235621,252.90701 C479.792393,253.063915 479.341147,253.509434 478.964346,253.999619 C478.584109,254.497822 478.253119,255.063596 477.954198,255.647696 C477.666729,256.222633 477.370098,256.861706 477.113553,257.480164 C476.578701,258.718226 476.08737,259.94827 475.502126,261.197785 L473.805947,264.928004 L473.722341,265.110106 L473.528786,265.111251 C472.578193,265.115832 471.6276,265.072311 470.677007,265.053986 C469.727559,265.03108 468.776966,265.005884 467.826373,264.957782" id="Fill-112" fill="#FFAB9A"></path>
                    <path d="M463.317927,264.404147 C466.323176,264.878298 470.119822,265.66855 473.12507,265.352449 C476.210489,265.036349 478.978662,262.663302 481.82586,261.713854 C484.198907,260.844577 486.779252,260.790748 487.204156,263.92885 C487.600427,266.856219 482.854333,269.152531 480.718362,270.65401 C477.792139,272.710956 474.788036,272.47159 471.307491,272.945741 C466.798472,273.579088 461.023906,273.895189 457.306285,271.127016 L463.317927,264.404147 Z" id="Fill-114" fill="#FFD5C7"></path>
                    <path d="M463.317927,264.404147 C463.317927,264.404147 463.880266,264.45683 464.867509,264.547309 C465.357694,264.596556 465.955537,264.656111 466.639277,264.723684 C467.324162,264.771786 468.093799,264.886315 468.931008,264.917238 C469.767072,264.94358 470.677579,265.072998 471.617865,264.969922 C472.08858,264.94358 472.571894,264.914948 473.065515,264.887461 C473.476675,264.76835 474.097424,264.725974 474.515456,264.537001 C475.430545,264.275874 476.406334,263.734151 477.369526,263.248546 C478.340734,262.729729 479.327977,262.168535 480.385082,261.676059 C480.914207,261.452727 481.499452,261.223669 482.013688,261.054165 C482.58748,260.873209 483.171579,260.734629 483.778585,260.679655 C484.384445,260.62468 485.028099,260.657894 485.640831,260.891534 C486.254708,261.113721 486.797577,261.575274 487.112532,262.115852 C487.706939,263.211897 487.873007,264.333139 487.400001,265.460107 C486.961354,266.470255 486.228366,267.132235 485.569823,267.691138 C484.217232,268.789473 482.928777,269.399915 482.077825,269.900408 C481.213129,270.380285 480.718362,270.65401 480.718362,270.65401 C480.718362,270.65401 481.152428,270.288662 481.958714,269.712579 C482.759274,269.136497 483.928618,268.324485 485.143774,267.206679 C485.729018,266.64434 486.345186,265.965181 486.622347,265.155459 C486.924704,264.4763 486.708244,263.367657 486.259289,262.652994 C485.804608,261.905118 484.882647,261.671478 483.882806,261.781426 C483.384604,261.831819 482.873803,261.956656 482.379037,262.120433 C481.827006,262.308261 481.364307,262.504106 480.855797,262.719421 C479.859392,263.167231 478.875586,263.711245 477.882617,264.227772 C476.862161,264.72941 475.888662,265.220741 474.753677,265.515081 C474.179885,265.710926 473.744674,265.716653 473.162865,265.817438 C472.639466,265.811712 472.12523,265.807131 471.627027,265.801404 C470.624896,265.836908 469.715533,265.642209 468.863435,265.555166 C468.010192,265.477286 467.255444,265.272279 466.577431,265.144006 C465.902853,264.998554 465.315318,264.870281 464.830859,264.76606 C463.867668,264.535856 463.317927,264.404147 463.317927,264.404147" id="Fill-116" fill="#FFAB9A"></path>
                    <path d="M452.640018,265.274341 C454.221668,265.511416 455.724292,265.906542 457.305941,266.459719 C458.651661,266.93387 460.154285,267.252261 461.577884,267.409166 C464.899233,267.726413 468.300753,265.432391 471.622102,265.669467 C474.312395,265.906542 473.600023,268.832765 472.492525,270.414415 C471.147951,272.313311 469.171176,273.657884 466.877154,273.89496 C461.182758,274.528307 454.518299,273.313151 449.772205,270.227732 L452.640018,265.274341 Z" id="Fill-118" fill="#FFD5C7"></path>
                    <path d="M457.306285,266.459833 C457.306285,266.459833 457.788453,266.553747 458.632534,266.718669 C459.050566,266.812583 459.562512,266.927113 460.152338,266.960326 C460.445533,266.988958 460.757052,267.018736 461.084606,267.050804 C461.247238,267.069129 461.414451,267.088599 461.583954,267.106924 C461.750021,267.102342 461.919525,267.096616 462.092464,267.09089 C462.855229,267.100052 463.555003,266.944292 464.347546,266.746156 C465.142379,266.538858 465.965845,266.242228 466.84772,265.971938 C467.729596,265.70623 468.644685,265.383258 469.652542,265.243532 C470.145018,265.13702 470.662691,265.111823 471.190671,265.112969 L471.584651,265.106097 C471.821727,265.111823 471.857231,265.140456 472.004974,265.155345 C472.112631,265.165652 472.255793,265.19772 472.425296,265.257276 C472.584492,265.306523 472.743688,265.359207 472.878832,265.446249 C473.458351,265.741735 473.879818,266.380808 473.980604,266.982087 C474.097424,267.586801 474.020689,268.151431 473.888981,268.669103 C473.756127,269.189066 473.552265,269.671234 473.29801,270.116753 C473.167446,270.349248 473.043755,270.540512 472.866234,270.778733 L472.428732,271.31702 C471.142568,272.82079 469.48533,273.694648 467.979269,274.016476 C467.603613,274.106954 467.243991,274.127569 466.885515,274.17109 C466.549944,274.173381 466.232698,274.176817 465.933776,274.179107 C465.337079,274.19056 464.814825,274.19056 464.380759,274.150475 C463.516063,274.094356 463.029314,274.045108 463.029314,274.045108 C463.029314,274.045108 463.517208,274.002732 464.370452,273.928288 C464.79421,273.912254 465.308446,273.843536 465.901708,273.754204 C466.198339,273.712973 466.512149,273.668307 466.844284,273.62135 C467.143206,273.540034 467.491375,273.505675 467.820074,273.391146 C468.495796,273.198736 469.174955,272.848277 469.83808,272.40963 C470.490897,271.941205 471.089885,271.351379 471.633899,270.697417 L472.048495,270.14195 C472.141264,270.001079 472.268391,269.793781 472.36116,269.609389 C472.553569,269.22457 472.712765,268.814555 472.816987,268.399959 C473.033447,267.561605 472.921208,266.722105 472.326801,266.449526 C472.258084,266.396842 472.181349,266.378517 472.10805,266.352176 C472.048495,266.321253 471.955726,266.291475 471.819436,266.275441 C471.724377,266.263988 471.52166,266.215886 471.513643,266.23421 L471.175782,266.238792 C470.725682,266.230775 470.274436,266.242228 469.819755,266.334996 C468.916119,266.452961 468.012483,266.70149 467.130607,266.93742 C466.252168,267.182513 465.377164,267.4047 464.527357,267.558169 C463.677549,267.705912 462.793383,267.803262 462.086738,267.732254 C461.893183,267.723091 461.703064,267.712784 461.517527,267.702476 C461.341152,267.665827 461.169358,267.629177 461.002145,267.592528 C460.67001,267.515793 460.355055,267.442494 460.058424,267.373777 C459.461726,267.259248 458.974977,267.079437 458.570688,266.931694 C457.765547,266.630482 457.306285,266.459833 457.306285,266.459833" id="Fill-120" fill="#FFAB9A"></path>
                    <path d="M150.165305,262.365182 C145.202751,263.319211 127.920282,264.483974 127.920282,264.483974 C127.525155,265.274226 122.678276,268.281765 120.38769,269.618322 C117.715722,270.763615 114.661226,271.908908 111.797994,272.672818 C102.445532,274.963404 90.9926032,270.190968 82.975553,265.228414 C81.0663498,264.083121 74.575975,259.310686 76.6764421,256.25619 C78.3943815,253.584222 84.3109645,259.50195 86.0289038,260.647243 C92.5192786,264.655768 100.345065,258.73804 106.262793,255.683543 C103.590825,253.584222 103.098349,255.013547 99.9636823,255.302161 C95.649364,255.699577 93.8558354,255.683543 91.1827218,254.348132 C85.4562574,251.675018 87.7399714,245.500744 92.9602163,246.925489 C95.3607502,247.580596 98.245743,248.049021 100.727593,248.621667 C103.590825,249.384433 106.262793,248.430404 109.126025,248.621667 C115.425136,249.00305 120.155196,253.132976 124.587479,256.828836 C126.180582,258.156231 130.505208,257.974129 134.513733,257.401483 C139.094904,256.638718 144.252158,255.233443 148.643211,254.279414 L150.165305,262.365182 Z" id="Fill-122" fill="#FFD5C7"></path>
                    <path d="M102.689365,253.330425 C103.359361,253.590406 103.993853,253.912233 104.645525,254.201993 C105.281163,254.508931 105.909928,254.821596 106.524951,255.15144 L106.702471,255.247645 L106.766607,255.504191 L106.944128,256.234887 C107.010555,256.471963 107.12852,256.687278 107.213272,256.912901 C107.316348,257.129361 107.475544,257.314899 107.59809,257.51647 C107.742397,257.705443 107.919917,257.870366 108.075677,258.050177 L108.65405,258.497986 L109.301141,258.875933 C109.755822,259.104991 110.236845,259.293965 110.731611,259.463468 C111.728016,259.804765 112.783976,260.041841 113.845663,260.308694 C114.905059,260.578983 115.994232,260.854999 117.005526,261.319988 C116.451204,261.26845 115.911771,261.203168 115.363176,261.172245 C114.815726,261.145903 114.269421,261.09551 113.720826,261.051989 C113.171085,261.002742 112.62249,260.930588 112.068168,260.854999 C111.517282,260.76223 110.966396,260.64541 110.41322,260.504539 C109.864625,260.343053 109.322901,260.138046 108.789195,259.888372 C108.526923,259.752082 108.270377,259.595177 108.016122,259.438272 C107.776756,259.253879 107.540825,259.060325 107.310622,258.862189 C107.10905,258.629695 106.890299,258.409799 106.710488,258.160125 C106.562745,257.887545 106.38408,257.629854 106.272986,257.344676 C106.180218,257.053772 106.058816,256.767449 105.999261,256.474254 L105.890458,255.585506 L106.13097,255.937111 C105.533127,255.530532 104.949028,255.104483 104.3718,254.674998 C103.810607,254.226044 103.233379,253.809157 102.689365,253.330425" id="Fill-124" fill="#FFAB9A"></path>
                    <path d="M100.869609,264.957782 C98.9718587,264.878756 97.0741084,264.798586 95.1740675,264.798586 C93.2293602,260.527789 92.9602163,259.105335 91.8527181,256.731143 C91.2995417,255.465594 89.6377217,251.589923 87.5807757,252.38132 C85.6830254,253.172718 85.5261202,257.601565 85.6040002,259.105335 C85.6830254,261.398211 86.0792967,264.245409 87.5807757,265.985109 C89.4808166,268.200106 92.4860651,269.228579 95.1740675,269.940951 L100.869609,264.957782 Z" id="Fill-126" fill="#FFD5C7"></path>
                    <path d="M100.869609,264.957782 C99.9190159,265.005884 98.9695681,265.03108 98.018975,265.053986 C97.0695272,265.072311 96.1189341,265.115832 95.168341,265.111251 L94.9736412,265.110106 L94.8911801,264.928004 L93.1938561,261.197785 C92.6086114,259.94827 92.1172808,258.718226 91.582429,257.480164 C91.3258834,256.861706 91.0292525,256.222633 90.741784,255.647696 C90.4428626,255.063596 90.1130182,254.497822 89.7316357,253.999619 C89.3548343,253.509434 88.9035889,253.063915 88.4603606,252.90701 C88.2416097,252.833711 88.0377475,252.832566 87.8235778,252.898993 L87.7834925,252.905865 C87.9277994,252.838292 87.8189966,252.888685 87.8499195,252.874942 L87.8430477,252.878378 L87.8293042,252.886395 L87.8018172,252.902429 L87.6895785,252.964275 C87.628878,253.003214 87.5120581,253.050171 87.4971693,253.085676 C87.4341782,253.163555 87.3597341,253.194478 87.2738372,253.322751 C86.929104,253.740783 86.7011907,254.339771 86.5282515,254.947922 C86.3553123,255.562944 86.2442189,256.21118 86.1709201,256.866287 C86.0987667,257.52025 86.0655532,258.185665 86.0552456,258.840772 C86.0541003,259.502752 86.0781514,260.194508 86.1251084,260.841599 C86.1869542,261.503578 86.2728512,262.164412 86.4160128,262.810357 C86.5694821,263.451721 86.7527289,264.088504 87.0241633,264.685202 C87.1524361,264.988704 87.3001789,265.283045 87.4937334,265.549898 C87.656365,265.838512 87.8739706,266.06757 88.1133369,266.325261 C88.5485482,266.861258 89.0753829,267.256384 89.59191,267.708775 C89.02499,267.344572 88.3996601,266.999839 87.9255088,266.513089 C87.6769803,266.297774 87.3998194,266.060699 87.1936667,265.77323 C86.956591,265.508667 86.7664724,265.215472 86.5935332,264.907389 C85.8800157,263.686506 85.5581884,262.298411 85.3428734,260.932077 C85.2466688,260.228867 85.1802418,259.563452 85.1344301,258.868259 C85.0897637,258.163904 85.1115242,257.469857 85.1630624,256.771228 C85.2180365,256.072599 85.3108052,255.372825 85.4814538,254.673051 C85.6578289,253.975568 85.9063575,253.265487 86.4114316,252.617251 C86.5167986,252.4592 86.7195154,252.287406 86.9050529,252.135082 C87.0081292,252.04575 87.0608127,252.037733 87.1409832,251.985049 L87.2509313,251.920913 L87.2795636,251.906024 L87.3803494,251.856776 L87.4639558,251.83158 C87.8968765,251.681546 88.3985148,251.683837 88.825709,251.829289 C89.6778069,252.136228 90.1886076,252.746669 90.6329812,253.317025 C91.0704831,253.90456 91.4186521,254.523018 91.7313171,255.150639 C92.0485632,255.793148 92.3119806,256.393281 92.5513468,257.041517 L95.4581001,264.669168 L95.1809392,264.487066 C96.1292417,264.535168 97.0775442,264.631373 98.026992,264.702381 C98.9741492,264.777971 99.9224518,264.856996 100.869609,264.957782" id="Fill-128" fill="#FFAB9A"></path>
                    <path d="M105.378169,264.404147 C102.37292,264.878298 98.5762745,265.66855 95.571026,265.352449 C92.485607,265.036349 89.7174341,262.663302 86.870236,261.713854 C84.4971891,260.844577 81.9168443,260.790748 81.4919406,263.92885 C81.0956693,266.856219 85.841763,269.152531 87.9777342,270.65401 C90.9039575,272.710956 93.9080607,272.47159 97.3886058,272.945741 C101.897624,273.579088 107.672191,273.895189 111.389811,271.127016 L105.378169,264.404147 Z" id="Fill-130" fill="#FFD5C7"></path>
                    <path d="M105.378169,264.404147 C105.378169,264.404147 104.828428,264.535856 103.865237,264.76606 C103.381923,264.870281 102.793243,264.998554 102.118665,265.144006 C101.440652,265.272279 100.687049,265.477286 99.8326608,265.555166 C98.9805629,265.642209 98.0712003,265.836908 97.0690691,265.801404 C96.5708667,265.807131 96.0566302,265.811712 95.5332313,265.817438 C94.9525678,265.716653 94.5162112,265.710926 93.9424195,265.515081 C92.8074343,265.220741 91.8339353,264.72941 90.8134794,264.227772 C89.8205104,263.711245 88.8367038,263.167231 87.840299,262.719421 C87.331789,262.504106 86.8690907,262.308261 86.3182048,262.120433 C85.8234383,261.956656 85.3114924,261.831819 84.81329,261.781426 C83.8134493,261.671478 82.8926338,261.905118 82.4368072,262.652994 C81.9889977,263.367657 81.7713921,264.4763 82.0737494,265.155459 C82.3509103,265.965181 82.9670778,266.64434 83.5534678,267.206679 C84.7686235,268.324485 85.9368223,269.136497 86.7385273,269.712579 C87.5436682,270.288662 87.9777342,270.65401 87.9777342,270.65401 C87.9777342,270.65401 87.4829677,270.380285 86.6182715,269.900408 C85.7673189,269.399915 84.4800097,268.789473 83.1262735,267.691138 C82.4677301,267.132235 81.7347427,266.470255 81.2972408,265.460107 C80.8230896,264.333139 80.989157,263.211897 81.583564,262.115852 C81.8985196,261.575274 82.4413884,261.113721 83.0552654,260.891534 C83.6691424,260.657894 84.3116517,260.62468 84.9175116,260.679655 C85.5245168,260.734629 86.1097615,260.873209 86.6824079,261.054165 C87.1977897,261.223669 87.7830344,261.452727 88.3110144,261.676059 C89.3681197,262.168535 90.3553622,262.729729 91.3265706,263.248546 C92.2909072,263.734151 93.2655514,264.275874 94.1806404,264.537001 C94.5986723,264.725974 95.2194211,264.76835 95.6305812,264.887461 C96.1242024,264.914948 96.607516,264.94358 97.0782314,264.969922 C98.0185169,265.072998 98.93017,264.94358 99.7662338,264.917238 C100.602298,264.886315 101.37308,264.771786 102.057965,264.723684 C102.741705,264.656111 103.338402,264.596556 103.829733,264.547309 C104.81583,264.45683 105.378169,264.404147 105.378169,264.404147" id="Fill-132" fill="#FFAB9A"></path>
                    <path d="M116.055964,265.274341 C114.474314,265.511416 112.97169,265.906542 111.39004,266.459719 C110.044321,266.93387 108.541697,267.252261 107.118098,267.409166 C103.796749,267.726413 100.395229,265.432391 97.0738793,265.669467 C94.3835863,265.906542 95.0959585,268.832765 96.2034567,270.414415 C97.5480306,272.313311 99.5248061,273.657884 101.818828,273.89496 C107.513224,274.528307 114.177683,273.313151 118.923777,270.227732 L116.055964,265.274341 Z" id="Fill-134" fill="#FFD5C7"></path>
                    <path d="M111.389811,266.459833 C111.389811,266.459833 110.930549,266.630482 110.125408,266.931694 C109.72112,267.079437 109.23437,267.259248 108.637672,267.373777 C108.342187,267.442494 108.026086,267.515793 107.693951,267.592528 C107.526738,267.629177 107.354944,267.665827 107.178569,267.702476 C106.993032,267.712784 106.804059,267.723091 106.609359,267.732254 C105.902713,267.803262 105.018547,267.705912 104.16874,267.558169 C103.318932,267.4047 102.445074,267.182513 101.565489,266.93742 C100.684759,266.70149 99.7811226,266.452961 98.8763412,266.334996 C98.42166,266.242228 97.9704146,266.230775 97.5214598,266.238792 L97.1824531,266.23421 C97.174436,266.215886 96.9728645,266.263988 96.8766599,266.275441 C96.74037,266.291475 96.6476013,266.321253 96.5880461,266.352176 C96.5158926,266.378517 96.4380127,266.396842 96.3692951,266.449526 C95.7748881,266.722105 95.6626494,267.561605 95.8802551,268.399959 C95.9833314,268.814555 96.1425271,269.22457 96.3349363,269.609389 C96.4288503,269.793781 96.5548326,270.001079 96.6487466,270.14195 L97.0621973,270.697417 C97.6062114,271.351379 98.2063449,271.941205 98.8580165,272.40963 C99.5211411,272.848277 100.2003,273.198736 100.876023,273.391146 C101.205867,273.505675 101.554036,273.540034 101.851812,273.62135 C102.183947,273.668307 102.498903,273.712973 102.794388,273.754204 C103.38765,273.843536 103.901886,273.912254 104.325645,273.928288 C105.178888,274.002732 105.666783,274.045108 105.666783,274.045108 C105.666783,274.045108 105.180033,274.094356 104.316482,274.150475 C103.882416,274.19056 103.359018,274.19056 102.763465,274.179107 C102.463399,274.176817 102.146152,274.173381 101.810582,274.17109 C101.452105,274.127569 101.092483,274.106954 100.716827,274.016476 C99.211912,273.694648 97.553528,272.82079 96.2673641,271.31702 L95.8298622,270.778733 C95.6523418,270.540512 95.5286501,270.349248 95.3980868,270.116753 C95.1438317,269.671234 94.9399696,269.189066 94.8071156,268.669103 C94.6765522,268.151431 94.5998176,267.586801 94.7154922,266.982087 C94.816278,266.380808 95.2377458,265.741735 95.817264,265.446249 C95.9524085,265.359207 96.1116042,265.306523 96.2707999,265.257276 C96.4403033,265.19772 96.5834649,265.165652 96.6922677,265.155345 C96.8388652,265.140456 96.8743693,265.111823 97.1125902,265.106097 L97.5054257,265.112969 C98.0334057,265.111823 98.5510781,265.13702 99.0446993,265.243532 C100.051412,265.383258 100.967646,265.70623 101.848376,265.971938 C102.730252,266.242228 103.553717,266.538858 104.348551,266.746156 C105.141093,266.944292 105.840867,267.100052 106.603632,267.09089 C106.777717,267.096616 106.946075,267.102342 107.112142,267.106924 C107.282791,267.088599 107.450004,267.069129 107.61149,267.050804 C107.939044,267.018736 108.251709,266.988958 108.543758,266.960326 C109.133584,266.927113 109.64553,266.812583 110.064707,266.718669 C110.907643,266.553747 111.389811,266.459833 111.389811,266.459833" id="Fill-136" fill="#FFAB9A"></path>
                    <path d="M252.844591,116.721722 C251.508035,115.195047 248.644802,115.003783 246.736744,115.767693 C243.490984,116.912986 243.109602,120.730247 243.300866,123.784743 C243.873512,131.61053 250.74527,135.427791 257.617027,134.282498 C261.243024,141.154255 265.446249,146.909352 272.699389,149.963848 C276.517795,151.490524 278.162436,151.584438 278.162436,151.584438 C278.3537,155.974345 278.804945,163.297348 278.422417,167.495992 C282.240824,168.068638 286.249349,166.923345 289.875346,166.923345 C289.445861,161.340042 289.445861,151.461891 289.445861,151.461891 C289.922303,151.032406 295.029164,148.598659 296.174457,147.835894 C301.900921,143.636105 306.569135,138.773191 309.623631,132.665344 C319.271578,131.801794 322.38563,128.3453 324.167706,122.638305 C326.075763,116.530458 320.608135,110.231348 314.881671,112.331815 C314.690407,102.214297 314.499143,88.8533106 309.155206,79.6909675 C303.810125,70.7187431 291.211903,70.5286245 281.858296,71.1012709 C273.459863,71.6739174 263.724874,71.4826535 256.661853,76.6364714 C254.371267,78.3544107 252.653327,78.9270572 252.080681,81.9815533 C251.890562,83.5082287 252.271945,85.226168 251.890562,86.7528434 L252.844591,116.721722 Z" id="Fill-138" fill="#FFD5C7"></path>
                    <path d="M246.354217,119.584954 C246.354217,119.584954 246.574113,119.523109 246.957786,119.415451 C247.144469,119.35246 247.410177,119.402853 247.717115,119.415451 C248.02749,119.440648 248.325266,119.581519 248.67458,119.708646 C248.971211,119.901055 249.356029,120.070559 249.642353,120.359172 C249.965325,120.618009 250.275699,120.918075 250.551715,121.262809 C251.135814,121.928224 251.626,122.721912 252.060066,123.531634 C252.483824,124.349373 252.845737,125.190018 253.128624,125.996304 C253.417238,126.799154 253.632553,127.56421 253.788313,128.227335 C254.107849,129.550148 254.181148,130.465237 254.181148,130.465237 C254.181148,130.465237 253.736775,129.662387 253.168709,128.44494 C252.883531,127.840226 252.551396,127.13587 252.196356,126.379977 C251.832152,125.633246 251.469095,124.830396 251.048772,124.064195 C250.862089,123.666778 250.63074,123.30143 250.428023,122.923483 C250.186367,122.57875 250.00541,122.188205 249.758027,121.880121 C249.527823,121.550277 249.301055,121.238757 249.054817,120.976485 C248.831485,120.679854 248.55776,120.500043 248.333283,120.267549 C248.075592,120.122097 247.838516,119.917089 247.612894,119.839209 C247.381544,119.779654 247.184554,119.637638 246.978401,119.641074 C246.580985,119.60557 246.354217,119.584954 246.354217,119.584954" id="Fill-140" fill="#FFAB9A"></path>
                    <path d="M319.461697,117.675751 C319.461697,117.675751 319.300211,117.773101 319.011597,117.92657 C318.858128,117.989561 318.735581,118.144176 318.570659,118.25756 C318.408028,118.366363 318.26143,118.585114 318.081619,118.750036 C317.764373,119.15776 317.423076,119.638783 317.137898,120.225173 C316.972976,120.501189 316.861882,120.825307 316.709558,121.128809 C316.576704,121.44491 316.439269,121.765592 316.328176,122.098872 C316.067049,122.751689 315.868913,123.429703 315.662761,124.06534 C315.472642,124.704414 315.298557,125.306838 315.155396,125.829091 C314.875944,126.893068 314.690407,127.602005 314.690407,127.602005 C314.690407,127.602005 314.4854,126.867872 314.503724,125.740904 C314.503724,125.178565 314.560989,124.523457 314.681245,123.8317 C314.755689,123.488113 314.803791,123.1262 314.917175,122.772305 C315.011089,122.414973 315.130199,122.055351 315.255036,121.699165 C315.533343,120.99481 315.852879,120.297327 316.275492,119.70521 C316.46332,119.397126 316.707268,119.133709 316.9306,118.887471 C317.153932,118.638943 317.413913,118.438516 317.644117,118.263286 C317.907535,118.109817 318.110252,117.950622 318.357635,117.877323 C318.59242,117.799443 318.78712,117.71011 318.948606,117.707819 C319.273869,117.681478 319.461697,117.675751 319.461697,117.675751" id="Fill-142" fill="#FFAB9A"></path>
                    <path d="M320.950349,62.682223 C320.731598,65.3381572 319.984867,69.1703071 319.855449,69.5505444 C318.710156,72.9096884 317.296865,75.4007004 314.850519,77.9581394 C319.622954,86.547836 317.934793,96.8703608 316.980764,106.414086 C316.7895,108.513408 316.408117,110.422611 315.644207,112.331815 C315.07156,114.239873 314.498914,116.721722 312.972239,115.003783 C310.871771,112.713197 311.635682,106.222822 311.444418,103.169472 C299.80137,102.024179 312.208328,82.9355823 304.191278,78.9270572 C300.946663,77.4003818 297.510785,80.0723501 294.647552,81.4089069 C289.302471,83.6994926 282.239449,84.6535216 276.895513,82.3629358 C271.360312,79.8810862 264.678674,76.8277353 260.288766,83.6994926 C257.99818,87.3254899 257.806916,92.4793078 257.616798,96.6790968 C257.425534,100.878886 256.661624,104.314764 255.707595,107.940762 C255.516331,109.468582 257.044151,120.157601 255.134948,120.730247 C253.225745,121.302894 251.240952,116.170836 249.393595,115.34508 C246.353988,113.985618 238.146819,74.8715751 254.180919,66.8545249 C267.541906,59.9827676 281.094157,63.6568672 295.601581,64.6108962 C300.024703,64.9018006 304.41461,64.8411 308.781612,64.0153439 C312.944752,63.2285277 316.585638,61.1314964 320.60447,60.1442539 C321.030519,60.038887 321.075186,61.1704364 320.950349,62.682223" id="Fill-144" fill="#583618"></path>
                    <path d="M263.639893,92.2651381 C264.866502,89.4419911 270.146302,88.3367835 272.969449,89.8096301" id="Fill-146" fill="#583618"></path>
                    <path d="M291.627988,90.1781854 C293.960949,88.2140081 298.379489,88.8278851 299.976028,91.5284857" id="Fill-148" fill="#583618"></path>
                    <path d="M262.669143,108.673406 C263.405566,115.793691 275.804507,115.67 275.558269,108.182075 C274.432446,113.440115 264.98607,114.545322 262.669143,108.673406" id="Fill-150" fill="#000000"></path>
                    <path d="M303.764313,108.673406 C303.026744,115.793691 290.628949,115.67 290.874042,108.182075 C291.999864,113.440115 301.447385,114.545322 303.764313,108.673406" id="Fill-152" fill="#000000"></path>
                    <path d="M278.708741,119.536852 C278.708741,119.536852 278.731646,119.70521 278.772877,120.023602 C278.82556,120.338557 278.853047,120.808127 278.867936,121.412842 C278.90344,122.594784 278.736228,124.35739 279.279096,126.224217 C279.460053,126.662864 279.637573,127.137016 279.9594,127.565355 C280.227399,127.950174 280.646576,128.316667 281.078351,128.625896 C281.980842,129.228321 283.123845,129.579925 284.277155,129.547857 C285.417866,129.49861 286.566595,128.969484 287.156421,127.976515 C287.746247,127.024777 287.762281,125.675622 287.589342,124.397475 C287.427855,123.095277 287.086558,121.79537 286.773893,120.480573 C286.446339,119.137145 286.284853,117.840673 286.045487,116.581997 C285.818719,115.322174 285.629745,114.097856 285.501473,112.920495 C285.325098,111.748861 285.328533,110.629909 285.257525,109.584257 C285.270123,109.072311 285.281576,108.583271 285.293029,108.115992 C285.319371,107.648712 285.391524,107.199757 285.435046,106.781725 C285.523233,105.94108 285.654942,105.236725 285.736258,104.642318 C285.910342,103.461521 286.009983,102.786944 286.009983,102.786944 C286.009983,102.786944 286.004256,103.469538 285.958444,104.665224 C285.934393,105.257341 285.869112,105.988037 285.859949,106.806922 C285.817573,107.62008 285.857659,108.550058 285.902325,109.57624 C286.031743,110.561192 286.087863,111.665254 286.328374,112.801385 C286.519638,113.943242 286.788782,115.145799 287.03731,116.396459 C287.304164,117.641392 287.538949,118.958479 287.848178,120.221737 C288.167714,121.511337 288.538789,122.849039 288.725472,124.253168 C288.882377,125.637827 288.928189,127.198862 288.086399,128.572068 C287.27095,129.920077 285.684719,130.541971 284.302351,130.553424 C282.890205,130.563732 281.598314,130.055222 280.593893,129.300474 C280.101417,128.899621 279.666205,128.488461 279.33178,127.945592 C279.016824,127.468005 278.839304,126.927427 278.664074,126.409755 C278.402947,125.361812 278.401802,124.388313 278.461357,123.553394 C278.515186,122.71504 278.593066,121.996941 278.645749,121.404825 C278.680108,120.816144 278.729356,120.348865 278.711031,120.028183 C278.709886,119.707501 278.708741,119.536852 278.708741,119.536852" id="Fill-154" fill="#FFAB9A"></path>
                    <path d="M272.968876,134.787 C272.968876,134.787 273.022705,134.869461 273.1212,135.026366 C273.226567,135.177544 273.35484,135.424928 273.563283,135.692926 C273.757983,135.970087 274.007657,136.291914 274.337501,136.627485 C274.662764,136.963056 275.060181,137.307789 275.517153,137.64336 C276.428806,138.319083 277.647398,138.864242 279.016023,139.198668 C280.388083,139.513623 281.912468,139.639605 283.42311,139.509042 C284.938332,139.419709 286.434085,139.085284 287.790111,138.645491 C289.141557,138.187374 290.34755,137.595258 291.294708,136.953894 C292.233848,136.304513 292.927895,135.624209 293.320731,135.072177 C293.518866,134.797307 293.67119,134.573975 293.751361,134.409053 C293.845275,134.247567 293.893377,134.162815 293.893377,134.162815 C293.869326,134.150217 293.832677,134.561377 293.510849,135.187852 C293.192458,135.808601 292.622102,136.672152 291.697851,137.473857 C290.782762,138.277852 289.550427,139.026874 288.13828,139.591503 C286.724989,140.154987 285.128451,140.530643 283.50328,140.650899 C282.691267,140.705873 281.873528,140.697856 281.072969,140.618831 C280.271264,140.559276 279.492464,140.374883 278.753751,140.168731 C278.013891,139.955706 277.327861,139.651058 276.710548,139.310906 C276.09209,138.967319 275.551512,138.568757 275.101412,138.150725 C274.195485,137.313516 273.667505,136.432785 273.367438,135.799438 C273.195644,135.4925 273.14067,135.224501 273.066226,135.053853 C273.00209,134.879768 272.968876,134.787 272.968876,134.787" id="Fill-156" fill="#FFAB9A"></path>
                    <path d="M432.917273,254.697103 C431.542922,255.017785 428.373896,253.460186 427.040775,253.028411 C424.534875,252.216398 422.07135,251.277258 419.629585,250.28658 C408.369066,245.724878 397.431519,240.308788 386.70127,234.621264 C375.510613,228.689792 364.251238,222.638064 354.802572,214.066692 C344.102101,204.363771 334.037267,193.297951 324.685951,182.298558 C320.96833,177.926976 317.364093,173.458043 313.5789,169.14487 C312.03161,167.381119 310.317106,164.68968 308.363236,163.335944 C305.825267,161.579065 290.450856,160.408576 290.450856,160.408576 C289.965252,163.783754 286.571749,166.5462 284.34759,168.023628 C282.124577,166.5462 278.732219,163.783754 278.244324,160.408576 C278.244324,160.408576 262.869913,161.579065 260.333089,163.335944 C258.379219,164.68968 256.663571,167.381119 255.117425,169.14487 C251.331087,173.458043 247.727995,177.926976 244.010375,182.298558 C234.659058,193.297951 224.594225,204.363771 213.893753,214.066692 C204.445087,222.638064 193.185713,228.689792 181.993911,234.621264 C171.264807,240.308788 160.326115,245.724878 149.065595,250.28658 C146.623831,251.277258 144.161451,252.216398 141.65555,253.028411 C140.321284,253.460186 137.153404,255.017785 135.779052,254.697103 C135.779052,254.697103 145.934364,257.065568 144.760439,269.940951 C150.973653,267.542708 157.031107,264.813475 163.102304,262.067062 C176.364796,256.064582 189.612399,249.962462 202.026228,242.317632 C218.219524,232.346712 232.089021,220.41047 245.644708,207.129653 C247.285912,205.522807 248.922536,203.910235 250.529382,202.271321 C251.135242,201.651718 254.066046,199.353115 254.085516,198.476966 C254.085516,198.478111 252.913882,253.896543 252.132792,257.32555 C251.352847,260.754557 249.790668,263.29138 251.352847,264.463015 C252.768429,265.525847 266.413449,272.200614 284.34759,272.133041 C302.281731,272.200614 315.929041,265.525847 317.343478,264.463015 C318.904512,263.29138 317.343478,260.754557 316.562388,257.32555 C315.782444,253.896543 314.610809,198.478111 314.610809,198.476966 C314.630279,199.353115 317.559938,201.651718 318.166944,202.271321 C319.773789,203.910235 321.410413,205.522807 323.050472,207.129653 C336.606159,220.41047 350.476801,232.346712 366.668952,242.317632 C379.083927,249.962462 392.330384,256.064582 405.594021,262.067062 C411.664073,264.813475 417.721527,267.542708 423.934741,269.940951 C422.761961,257.065568 432.917273,254.697103 432.917273,254.697103" id="Fill-158" fill="#EEEEEE"></path>
                    <path d="M254.181148,200.136839 C254.181148,200.136839 254.111285,199.800123 254.016226,199.208006 C253.933765,198.61589 253.782586,197.771809 253.66004,196.755934 C253.398913,194.723039 253.149239,192.008695 252.988898,189.288624 C252.83772,186.568554 252.775874,183.842757 252.805651,181.794973 C252.811378,180.772227 252.867497,179.915548 252.881241,179.317705 C252.908728,178.719862 252.939651,178.376274 252.939651,178.376274 C252.939651,178.376274 253.010659,178.714135 253.104573,179.306252 C253.188179,179.897223 253.340503,180.741304 253.461904,181.757179 C253.724176,183.790073 253.972705,186.504417 254.131901,189.224488 C254.283079,191.944559 254.342634,194.670356 254.314002,196.718139 C254.30713,197.742031 254.252156,198.597565 254.238413,199.195408 C254.210926,199.793251 254.181148,200.136839 254.181148,200.136839" id="Fill-160" fill="#C0D6DB"></path>
                    <path d="M314.690407,202.107544 C314.690407,202.107544 314.640014,201.736469 314.579314,201.087088 C314.530066,200.438852 314.428135,199.511165 314.362853,198.400231 C314.218546,196.174927 314.122342,193.207473 314.117761,190.24231 C314.121196,187.276001 314.216256,184.309693 314.361708,182.085534 C314.425844,180.972309 314.528921,180.044622 314.578168,179.396386 C314.640014,178.748151 314.690407,178.37593 314.690407,178.37593 C314.690407,178.37593 314.7408,178.748151 314.802646,179.396386 C314.851893,180.044622 314.95497,180.972309 315.019106,182.085534 C315.164558,184.309693 315.259618,187.276001 315.263053,190.24231 C315.258472,193.207473 315.162268,196.174927 315.017961,198.400231 C314.952679,199.511165 314.850748,200.438852 314.8015,201.087088 C314.7408,201.736469 314.690407,202.107544 314.690407,202.107544" id="Fill-162" fill="#C0D6DB"></path>
                    <path d="M282.664697,277.394975 C279.542628,277.370924 276.426286,277.122395 273.309944,276.858978 C269.016241,276.497065 264.733991,275.986265 260.474647,275.334593 C258.030592,274.962373 255.588828,274.547777 253.166533,274.057592 L249.234743,273.263904 L251.55167,262.675671 C251.521893,262.816542 256.442071,264.150808 256.639061,264.202346 C261.784862,265.578988 267.046338,266.370386 272.355915,266.763221 C277.570434,267.14804 282.760901,267.270586 287.986873,267.237373 C293.99966,267.199578 300.211729,266.590282 306.128312,265.532031 C309.335132,264.957094 312.498431,264.163406 315.60332,263.18189 C315.6812,263.156694 317.151756,262.711175 317.143739,262.675671 L319.461812,273.263904 L315.530021,274.057592 C308.840365,275.375824 302.071685,276.292058 295.280098,276.869286 C292.029757,277.144156 288.766817,277.214019 285.509604,277.349163 C284.561302,277.388103 283.612999,277.401847 282.664697,277.394975" id="Fill-164" fill="#333E40"></path>
                    <polygon id="Fill-166" fill="#2E496F" points="261.924244 264.143593 261.924244 275.549565 268.103099 276.345543 268.103099 265.273997"></polygon>
                    <path d="M277.288348,265.274341 L277.288348,277.39612 C277.288348,277.39612 292.433701,277.940134 295.279754,276.869286 L295.279754,265.274341 L277.288348,265.274341 Z" id="Fill-168" fill="#C1C1C1"></path>
                    <polygon id="Fill-170" fill="#2E496F" points="305.013598 264.143593 305.013598 275.800384 310.439996 274.981499 310.439996 263.436947"></polygon>
                    <polygon id="Fill-172" fill="#9CCEDE" points="281.701734 171.077322 274.638713 256.019114 284.348506 267.232677 293.35738 255.843884 286.284051 171.077322"></polygon>
                </g>
                <g id="Group-202" transform="translate(273.724999, 183.995883)">
                    <g id="Group-177">
                        <mask id="mask-4" fill="white">
                            <use xlink:href="#path-3"></use>
                        </mask>
                        <g id="Clip-176"></g>
                        <polygon id="Fill-175" fill="#0D63B0" mask="url(#mask-4)" points="3.07682932 23.5560404 0.517099736 21.263164 17.2601364 2.56396717 19.8187207 4.85569823"></polygon>
                    </g>
                    <g id="Group-180">
                        <mask id="mask-6" fill="white">
                            <use xlink:href="#path-5"></use>
                        </mask>
                        <g id="Clip-179"></g>
                        <polygon id="Fill-178" fill="#0D63B0" mask="url(#mask-6)" points="3.07682932 12.5303058 0.517099736 10.2385748 17.2601364 -8.46176739 19.8187207 -6.17003634"></polygon>
                    </g>
                    <g id="Group-183">
                        <mask id="mask-8" fill="white">
                            <use xlink:href="#path-7"></use>
                        </mask>
                        <g id="Clip-182"></g>
                        <polygon id="Fill-181" fill="#0D63B0" mask="url(#mask-8)" points="2.19105981 46.5077097 -0.362943314 44.2102522 17.2619688 24.6120004 19.8171172 26.9094579"></polygon>
                    </g>
                    <g id="Group-186">
                        <mask id="mask-10" fill="white">
                            <use xlink:href="#path-9"></use>
                        </mask>
                        <g id="Clip-185"></g>
                        <polygon id="Fill-184" fill="#0D63B0" mask="url(#mask-10)" points="3.07682932 34.5805151 0.517099736 32.2876388 17.2601364 13.5884419 19.8187207 15.880173"></polygon>
                    </g>
                    <g id="Group-189">
                        <mask id="mask-12" fill="white">
                            <use xlink:href="#path-11"></use>
                        </mask>
                        <g id="Clip-188"></g>
                        <polygon id="Fill-187" fill="#0D63B0" mask="url(#mask-12)" points="0.605058229 70.4738795 -1.95581665 68.1832937 20.2743182 43.3144041 22.835193 45.6049899"></polygon>
                    </g>
                    <g id="Group-192">
                        <mask id="mask-14" fill="white">
                            <use xlink:href="#path-13"></use>
                        </mask>
                        <g id="Clip-191"></g>
                        <polygon id="Fill-190" fill="#0D63B0" mask="url(#mask-14)" points="2.20560503 58.0266074 -0.378175709 55.7623634 17.2478817 35.653311 19.8316625 37.9164097"></polygon>
                    </g>
                    <g id="Group-195">
                        <mask id="mask-16" fill="white">
                            <use xlink:href="#path-15"></use>
                        </mask>
                        <g id="Clip-194"></g>
                        <polygon id="Fill-193" fill="#0D63B0" mask="url(#mask-16)" points="0.605058229 92.5240888 -1.95581665 90.233503 20.2743182 65.3646134 22.835193 67.6551992"></polygon>
                    </g>
                    <g id="Group-198">
                        <mask id="mask-18" fill="white">
                            <use xlink:href="#path-17"></use>
                        </mask>
                        <g id="Clip-197"></g>
                        <polygon id="Fill-196" fill="#0D63B0" mask="url(#mask-18)" points="0.605058229 103.549823 -1.95581665 101.259238 20.2743182 76.390348 22.835193 78.6809337"></polygon>
                    </g>
                    <g id="Group-201">
                        <mask id="mask-20" fill="white">
                            <use xlink:href="#path-19"></use>
                        </mask>
                        <g id="Clip-200"></g>
                        <polygon id="Fill-199" fill="#0D63B0" mask="url(#mask-20)" points="-0.97979806 83.5586216 -3.54983528 81.2794888 20.2699661 54.4200801 22.8400033 56.699213"></polygon>
                    </g>
                </g>
                <g id="Group-214" transform="translate(269.143827, 0.749022)">
                    <path d="M19.0919178,179.791169 C16.7967509,179.791169 13.9713133,179.084523 11.6750011,179.437273 C9.55620927,179.791169 10.0864799,179.614794 9.38097946,181.733585 C9.02708396,183.146877 8.49681335,185.443189 9.20345906,186.67896 C10.7931256,189.680773 15.7362097,190.740169 18.208897,188.445002 C20.152459,186.50144 20.6827296,182.616606 20.152459,180.145064 L19.0919178,179.791169 Z" id="Fill-203" fill="#75B3C2"></path>
                    <path d="M14.6773864,179.792314 C11.6755737,178.026272 10.0859072,174.140294 8.85013621,170.60821 C3.72838644,170.60821 0.021073389,172.197877 0.5501987,178.026272 C0.9040942,181.911106 4.08228194,186.680105 7.43799009,188.445002 L14.6773864,179.792314 Z" id="Fill-205" fill="#FFFFFF"></path>
                    <path d="M14.7489672,179.792314 C17.7507798,178.026272 19.3404464,174.140294 20.5762174,170.60821 C25.6979671,170.60821 29.4064255,172.197877 28.8761549,178.026272 C28.5222594,181.911106 25.3440716,186.680105 21.9883635,188.445002 L14.7489672,179.792314 Z" id="Fill-207" fill="#FFFFFF"></path>
                    <path d="M218.598845,242.697296 C218.46141,243.097004 218.026199,243.308883 217.626492,243.171448 L201.716083,237.693512 C201.316376,237.556077 201.104497,237.120865 201.241932,236.721158 L208.21333,216.471235 C208.350765,216.071528 208.787121,215.858503 209.185683,215.997084 L225.097237,221.473874 C225.495799,221.611309 225.708824,222.047666 225.571388,222.446228 L218.598845,242.697296 Z M207.928152,245.494102 C207.128737,245.219231 206.703834,244.348809 206.978704,243.55054 C207.254719,242.751125 208.123997,242.327367 208.924556,242.602237 C209.723971,242.877107 210.147729,243.74753 209.872859,244.545799 C209.597989,245.346359 208.727566,245.770117 207.928152,245.494102 Z M226.342171,217.858184 L210.430617,212.380249 C208.436662,211.694218 206.256024,212.75705 205.568848,214.75215 L196.605786,240.788093 C195.91861,242.780903 196.982588,244.962686 198.976542,245.648716 L214.888096,251.126652 C216.882051,251.813828 219.062689,250.748705 219.748719,248.755896 L228.712927,222.719953 C229.400103,220.724853 228.336125,218.544215 226.342171,217.858184 Z" id="Fill-209" fill="#5A6652"></path>
                    <g id="Group-213" transform="translate(1.145293, 0.000000)">
                        <mask id="mask-22" fill="white">
                            <use xlink:href="#path-21"></use>
                        </mask>
                        <g id="Clip-212"></g>
                        <path d="M57.1482823,21.6590918 C55.7716402,9.71597763 45.6197642,0.483771713 33.4682067,0.396729454 C20.9994031,0.307396609 10.6322119,9.72628526 9.40903913,22.0244402 C3.95973561,23.8408747 0.214627886,28.9110863 0.173397342,34.7119948 C0.119568577,42.1667061 6.14151855,48.2745531 13.5973752,48.3283818 L55.6582563,48.6284486 C63.1141129,48.681132 69.2219598,42.6603273 69.2746433,35.2044707 C69.3250362,28.1884065 63.9936978,22.3634469 57.1482823,21.6590918" id="Fill-211" fill="#91CFE5" mask="url(#mask-22)"></path>
                    </g>
                </g>
            </g>
        </g>
    </g>
</svg>