<?xml version="1.0" encoding="UTF-8"?>
<svg width="150px" height="30px" viewBox="0 0 150 30" version="1.1" xmlns="http://www.w3.org/2000/svg" xmlns:xlink="http://www.w3.org/1999/xlink">
    <!-- Generator: Sketch 49.1 (51147) - http://www.bohemiancoding.com/sketch -->
    <title>logo-zcloud</title>
    <desc>Created with Sketch.</desc>
    <defs>
        <polygon id="path-1" points="0.184618644 0.136610169 12.6786864 0.136610169 12.6786864 17.3728814 0.184618644 17.3728814"></polygon>
        <polygon id="path-3" points="0.398262712 0.136483051 18.4791949 0.136483051 18.4791949 17.3728814 0.398262712 17.3728814"></polygon>
        <polygon id="path-5" points="0.251779661 0.1675 14.5652542 0.1675 14.5652542 16.4941949 0.251779661 16.4941949"></polygon>
    </defs>
    <g id="Page-1" stroke="none" stroke-width="1" fill="none" fill-rule="evenodd">
        <g id="Desktop-HD-Copy" transform="translate(-124.000000, -34.000000)">
            <g id="logo-zcloud" transform="translate(124.000000, 34.168210)">
                <path d="M35.4152542,5.82682203 C34.7533898,5.82682203 34.0932203,5.88444915 33.4436441,5.99927966 C32.4817797,4.6484322 31.2847458,3.46834746 29.8957627,2.5115678 C27.5088983,0.868771186 24.7114407,0.000127118644 21.8059322,0.000127118644 C18.2148305,0.000127118644 14.7822034,1.33783898 12.140678,3.76834746 C10.3783898,5.38995763 9.0690678,7.40182203 8.30423729,9.62216102 C3.62754237,10.2145339 0,14.2179237 0,19.0530932 C0,24.2950424 4.26398305,28.5590254 9.5059322,28.5590254 L9.97076271,28.5590254 L12.1262712,25.0098729 L9.5059322,25.0098729 C6.21610169,25.0098729 3.54915254,22.3429237 3.54915254,19.0530932 C3.54915254,15.7624153 6.21610169,13.0954661 9.5059322,13.0954661 C10.0652542,13.0954661 10.6063559,13.1738559 11.1190678,13.3183475 C11.604661,7.8425 16.2042373,3.54927966 21.8059322,3.54927966 C26.3182203,3.54927966 30.179661,6.33487288 31.765678,10.2793644 C32.8550847,9.70266949 34.0970339,9.37597458 35.4152542,9.37597458 C39.7330508,9.37597458 43.2322034,12.8751271 43.2322034,17.1929237 C43.2322034,21.5107203 39.7330508,25.0098729 35.4152542,25.0098729 L21.7877119,25.0098729 L29.3148305,12.5437712 L16.0809322,12.5437712 L16.0809322,16.0632627 L22.3800847,16.0632627 L16.9483051,25.0098729 L14.8063559,28.5590254 L35.4152542,28.5590254 C41.6826271,28.5590254 46.7813559,23.4602966 46.7813559,17.1929237 C46.7813559,10.9255508 41.6826271,5.82682203 35.4152542,5.82682203" id="Fill-1" fill="#00B592"></path>
                <polygon id="Fill-3" fill="#3E4650" points="62.3851271 24.9647458 69.2275 24.9647458 69.2275 28.5588136 55.2609746 28.5588136 62.9914831 15.8270339 56.5601271 15.8270339 56.5601271 12.2321186 70.0719915 12.2321186"></polygon>
                <g id="Group-7" transform="translate(71.186441, 11.640890)">
                    <mask id="mask-2" fill="white">
                        <use xlink:href="#path-1"></use>
                    </mask>
                    <g id="Clip-6"></g>
                    <path d="M12.6786864,6.04805085 C11.6969068,4.85016949 10.4841949,4.25059322 9.04097458,4.25059322 C8.40580508,4.25059322 7.81724576,4.36669492 7.27614407,4.59720339 C6.73504237,4.82855932 6.26936441,5.14254237 5.8795339,5.53915254 C5.48970339,5.93618644 5.18292373,6.4090678 4.95919492,6.95737288 C4.73504237,7.50652542 4.62360169,8.09805085 4.62360169,8.73322034 C4.62360169,9.38279661 4.73504237,9.98194915 4.95919492,10.530678 C5.18292373,11.0789831 5.49309322,11.555678 5.89012712,11.9599153 C6.28716102,12.3641525 6.75283898,12.6815254 7.28673729,12.9124576 C7.82063559,13.1433898 8.39817797,13.2590678 9.01936441,13.2590678 C10.3757203,13.2590678 11.5960593,12.6815254 12.6786864,11.5268644 L12.6786864,16.5501695 L12.2460593,16.7018644 C11.5960593,16.9323729 10.9897034,17.1022881 10.4269915,17.2107627 C9.8634322,17.3188136 9.30792373,17.3730508 8.75961864,17.3730508 C7.63334746,17.3730508 6.55411017,17.1599153 5.52190678,16.7344915 C4.48970339,16.3082203 3.58038136,15.7094915 2.79394068,14.9370339 C2.00707627,14.165 1.37572034,13.2480508 0.899025424,12.1870339 C0.422754237,11.1255932 0.184618644,9.96754237 0.184618644,8.71161017 C0.184618644,7.45567797 0.418940678,6.30440678 0.888432203,5.25779661 C1.35707627,4.21118644 1.9854661,3.30864407 2.77233051,2.55101695 C3.55877119,1.7929661 4.47190678,1.20144068 5.51131356,0.775169492 C6.55072034,0.349745763 7.64055085,0.136610169 8.78122881,0.136610169 C9.43080508,0.136610169 10.0693644,0.205254237 10.6973305,0.342542373 C11.3257203,0.47940678 11.9858898,0.692542373 12.6786864,0.981101695 L12.6786864,6.04805085 Z" id="Fill-5" fill="#3E4650" mask="url(#mask-2)"></path>
                </g>
                <polygon id="Fill-8" fill="#3E4650" points="90.7941949 12.2322034 90.7941949 24.9648305 95.8827542 24.9648305 95.8827542 28.5588983 86.5497034 28.5588983 86.5497034 12.2322034"></polygon>
                <g id="Group-12" transform="translate(96.610169, 11.640890)">
                    <mask id="mask-4" fill="white">
                        <use xlink:href="#path-3"></use>
                    </mask>
                    <g id="Clip-11"></g>
                    <path d="M4.83766949,8.75470339 C4.83766949,9.40427966 4.96012712,10.0038559 5.20588983,10.552161 C5.45080508,11.1008898 5.78300847,11.577161 6.20165254,11.9813983 C6.62029661,12.3856356 7.10758475,12.6996186 7.66351695,12.9233475 C8.21860169,13.1470763 8.80716102,13.2589407 9.42834746,13.2589407 C10.0486864,13.2589407 10.6372458,13.1470763 11.1927542,12.9233475 C11.7486864,12.6996186 12.2397881,12.3856356 12.6656356,11.9813983 C13.0906356,11.577161 13.4270763,11.1008898 13.6724153,10.552161 C13.918178,10.0038559 14.0406356,9.40427966 14.0406356,8.75470339 C14.0406356,8.10512712 13.918178,7.50639831 13.6724153,6.95724576 C13.4270763,6.40894068 13.0906356,5.93266949 12.6656356,5.5284322 C12.2397881,5.12419492 11.7486864,4.81021186 11.1927542,4.58648305 C10.6372458,4.36275424 10.0486864,4.25088983 9.42834746,4.25088983 C8.80716102,4.25088983 8.21860169,4.36275424 7.66351695,4.58648305 C7.10758475,4.81021186 6.62029661,5.12419492 6.20165254,5.5284322 C5.78300847,5.93266949 5.45080508,6.40894068 5.20588983,6.95724576 C4.96012712,7.50639831 4.83766949,8.10512712 4.83766949,8.75470339 M0.398262712,8.75470339 C0.398262712,7.54241525 0.622415254,6.41275424 1.06987288,5.36572034 C1.51733051,4.3195339 2.13809322,3.40639831 2.93216102,2.62673729 C3.72580508,1.8475 4.67495763,1.23775424 5.77961864,0.797076271 C6.88385593,0.356822034 8.09995763,0.136483051 9.42834746,0.136483051 C10.7419068,0.136483051 11.9541949,0.356822034 13.0660593,0.797076271 C14.1770763,1.23775424 15.1338559,1.8475 15.9347034,2.62673729 C16.7359746,3.40639831 17.3605508,4.3195339 17.8080085,5.36572034 C18.2550424,6.41275424 18.4791949,7.54241525 18.4791949,8.75470339 C18.4791949,9.96741525 18.2550424,11.0970763 17.8080085,12.1436864 C17.3605508,13.1902966 16.7359746,14.1034322 15.9347034,14.8830932 C15.1338559,15.6623305 14.1770763,16.2725 13.0660593,16.7127542 C11.9541949,17.1525847 10.7419068,17.3729237 9.42834746,17.3729237 C8.09995763,17.3729237 6.88385593,17.1525847 5.77961864,16.7127542 C4.67495763,16.2725 3.72580508,15.6623305 2.93216102,14.8830932 C2.13809322,14.1034322 1.51733051,13.1902966 1.06987288,12.1436864 C0.622415254,11.0970763 0.398262712,9.96741525 0.398262712,8.75470339" id="Fill-10" fill="#3E4650" mask="url(#mask-4)"></path>
                </g>
                <path d="M122.018517,12.2322034 L122.018517,21.1105932 C122.018517,21.5868644 122.036314,22.0741525 122.072754,22.5720339 C122.108347,23.0699153 122.216822,23.5216102 122.397754,23.9254237 C122.577415,24.329661 122.863008,24.6580508 123.252839,24.9105932 C123.642669,25.1631356 124.190975,25.2894068 124.898602,25.2894068 C125.605381,25.2894068 126.15072,25.1631356 126.532924,24.9105932 C126.915551,24.6580508 127.20072,24.329661 127.388432,23.9254237 C127.57572,23.5216102 127.688008,23.0699153 127.724025,22.5720339 C127.760466,22.0741525 127.778263,21.5868644 127.778263,21.1105932 L127.778263,12.2322034 L132.00072,12.2322034 L132.00072,21.695339 C132.00072,24.2360169 131.419788,26.090678 130.2575,27.2597458 C129.095636,28.429661 127.308771,29.0135593 124.898602,29.0135593 C122.487585,29.0135593 120.697754,28.429661 119.528686,27.2597458 C118.358771,26.090678 117.774025,24.2360169 117.774025,21.695339 L117.774025,12.2322034 L122.018517,12.2322034 Z" id="Fill-13" fill="#3E4650"></path>
                <g id="Group-17" transform="translate(135.169492, 12.064619)">
                    <mask id="mask-6" fill="white">
                        <use xlink:href="#path-5"></use>
                    </mask>
                    <g id="Clip-16"></g>
                    <path d="M4.49584746,12.9001271 L5.47042373,12.9001271 C6.20686441,12.9001271 6.8640678,12.7848729 7.44076271,12.5539407 C8.01830508,12.3230085 8.50559322,12.0052119 8.90262712,11.6009746 C9.29966102,11.1967373 9.60305085,10.7166525 9.81194915,10.1611441 C10.0212712,9.60563559 10.1263559,8.9954661 10.1263559,8.33105932 C10.1263559,7.68148305 10.0178814,7.07512712 9.80135593,6.51199153 C9.58525424,5.94885593 9.27762712,5.46580508 8.88101695,5.06114407 C8.48355932,4.65733051 7.99669492,4.3395339 7.41915254,4.10860169 C6.8420339,3.87809322 6.19245763,3.76241525 5.47042373,3.76241525 L4.49584746,3.76241525 L4.49584746,12.9001271 Z M0.251779661,0.1675 L6.53186441,0.1675 C7.64330508,0.1675 8.68652542,0.391652542 9.66067797,0.838686441 C10.6348305,1.2865678 11.4865254,1.88190678 12.2157627,2.62512712 C12.9445763,3.36877119 13.5187288,4.23487288 13.9373729,5.22385593 C14.3560169,6.21283898 14.565339,7.2484322 14.565339,8.33105932 C14.565339,9.39970339 14.3594068,10.4285169 13.9479661,11.4170763 C13.5365254,12.4056356 12.9661864,13.2755508 12.2373729,14.0259746 C11.5085593,14.776822 10.6564407,15.3759746 9.68186441,15.8234322 C8.70771186,16.2713136 7.65771186,16.4941949 6.53186441,16.4941949 L0.251779661,16.4941949 L0.251779661,0.1675 Z" id="Fill-15" fill="#3E4650" mask="url(#mask-6)"></path>
                </g>
            </g>
        </g>
    </g>
</svg>