<?xml version="1.0" encoding="utf-8"?>
<!-- Generator: Adobe Illustrator 21.1.0, SVG Export Plug-In . SVG Version: 6.00 Build 0)  -->
<svg version="1.1" id="Layer_1" xmlns="http://www.w3.org/2000/svg" xmlns:xlink="http://www.w3.org/1999/xlink" x="0px" y="0px"
	 viewBox="0 0 800 274.2" style="enable-background:new 0 0 800 274.2;" xml:space="preserve">
<style type="text/css">
	.st0{fill:#3E4650;}
	.st1{fill:#939598;}
	.st2{fill:#60C4A8;}
</style>
<g>
	<path class="st0" d="M381.5,128.8v85.7h-22.3v-85.7H381.5z"/>
	<path class="st0" d="M395.3,184.9c0-4.3,0.9-8.4,2.6-12.1c1.7-3.8,4.2-7,7.3-9.8c3.1-2.8,6.8-4.9,11.1-6.5c4.3-1.6,9-2.4,14-2.4
		c5,0,9.6,0.8,13.9,2.3c4.3,1.6,8,3.7,11.1,6.5c3.1,2.8,5.6,6.1,7.3,9.9c1.7,3.8,2.6,8.1,2.6,12.7c0,4.6-0.9,8.8-2.7,12.7
		c-1.8,3.8-4.2,7.1-7.3,9.9c-3.1,2.8-6.8,4.9-11.2,6.4c-4.4,1.5-9.1,2.3-14.2,2.3c-5,0-9.6-0.8-13.9-2.3c-4.2-1.5-7.9-3.7-11-6.5
		c-3.1-2.8-5.5-6.2-7.2-10.1C396.1,194,395.3,189.7,395.3,184.9z M417,185.1c0,2,0.4,3.8,1.1,5.4c0.7,1.6,1.7,3.1,2.8,4.3
		c1.2,1.2,2.6,2.2,4.2,2.8c1.6,0.7,3.4,1,5.2,1c1.8,0,3.5-0.3,5.2-1c1.6-0.7,3-1.6,4.2-2.8c1.2-1.2,2.1-2.6,2.8-4.3
		c0.7-1.6,1.1-3.4,1.1-5.3c0-1.8-0.4-3.5-1.1-5.2c-0.7-1.6-1.7-3-2.8-4.3c-1.2-1.2-2.6-2.2-4.2-2.8c-1.6-0.7-3.4-1-5.2-1
		c-1.8,0-3.5,0.3-5.2,1c-1.6,0.7-3,1.6-4.2,2.8c-1.2,1.2-2.1,2.6-2.8,4.2C417.3,181.6,417,183.3,417,185.1z"/>
	<path class="st0" d="M507.3,147.7v66.8h-22.3v-66.8h-18.3v-18.9h58.9v18.9H507.3z"/>
	<path class="st1" d="M553.7,128.8v32.8c4.9-5.1,10.9-7.6,18.2-7.6c4.3,0,8.3,0.8,11.9,2.5c3.6,1.6,6.7,3.8,9.2,6.6
		c2.5,2.8,4.5,6,6,9.8c1.4,3.8,2.2,7.8,2.2,12c0,4.3-0.7,8.4-2.2,12.2c-1.5,3.8-3.6,7.1-6.2,9.9c-2.7,2.8-5.8,5-9.4,6.7
		c-3.6,1.6-7.5,2.5-11.7,2.5c-7.6,0-13.6-2.8-18-8.3v6.5h-20.6v-85.5H553.7z M579.7,185.3c0-1.8-0.3-3.6-1-5.2
		c-0.7-1.6-1.6-3.1-2.9-4.3c-1.2-1.2-2.6-2.2-4.2-2.9c-1.6-0.7-3.3-1.1-5.2-1.1c-1.8,0-3.5,0.3-5.1,1c-1.6,0.7-3,1.6-4.2,2.9
		c-1.2,1.2-2.1,2.6-2.9,4.3c-0.7,1.6-1.1,3.4-1.1,5.2s0.3,3.5,1,5.1c0.7,1.6,1.6,3,2.9,4.2c1.2,1.2,2.6,2.1,4.3,2.9
		c1.6,0.7,3.4,1.1,5.2,1.1c1.8,0,3.5-0.3,5.1-1c1.6-0.7,3-1.6,4.2-2.9c1.2-1.2,2.1-2.6,2.9-4.2C579.3,188.7,579.7,187.1,579.7,185.3
		z"/>
	<path class="st1" d="M610.7,184.6c0-4.3,0.9-8.4,2.6-12.1c1.7-3.8,4.2-7,7.3-9.8c3.1-2.8,6.8-5,11.1-6.6c4.3-1.6,9-2.4,14.1-2.4
		c5,0,9.7,0.8,14,2.3c4.3,1.6,8,3.7,11.2,6.5c3.2,2.8,5.6,6.1,7.4,9.9c1.7,3.8,2.6,8.1,2.6,12.7c0,4.6-0.9,8.9-2.7,12.7
		c-1.8,3.8-4.2,7.1-7.4,9.9c-3.1,2.8-6.9,4.9-11.2,6.4c-4.4,1.5-9.1,2.3-14.2,2.3c-5,0-9.7-0.8-13.9-2.3c-4.3-1.5-7.9-3.7-11-6.5
		c-3.1-2.8-5.5-6.2-7.2-10.1C611.6,193.8,610.7,189.4,610.7,184.6z M632.5,184.8c0,2,0.4,3.8,1.1,5.4c0.7,1.6,1.7,3.1,2.9,4.3
		c1.2,1.2,2.6,2.2,4.2,2.9c1.6,0.7,3.4,1,5.2,1c1.8,0,3.6-0.3,5.2-1c1.6-0.7,3-1.6,4.2-2.9c1.2-1.2,2.1-2.6,2.9-4.3
		c0.7-1.6,1.1-3.4,1.1-5.3c0-1.8-0.4-3.6-1.1-5.2c-0.7-1.6-1.7-3.1-2.9-4.3c-1.2-1.2-2.6-2.2-4.2-2.9c-1.6-0.7-3.4-1-5.2-1
		c-1.8,0-3.6,0.3-5.2,1c-1.6,0.7-3,1.6-4.2,2.9c-1.2,1.2-2.1,2.6-2.9,4.2C632.8,181.3,632.5,183,632.5,184.8z"/>
	<path class="st1" d="M711.1,182.7l-23.7-26.8h26.9l10,12.1l10.3-12.1h26.9l-24.3,26.8l29.3,31.7h-27.4L724.2,197l-15.1,17.3h-27.3
		L711.1,182.7z"/>
</g>
<g>
	<path class="st2" d="M184.1,164.8v52.8h-18.4v-52.8H184.1z"/>
	<circle class="st2" cx="174.9" cy="145.6" r="9.1"/>
	<g>
		<path class="st2" d="M263.9,95.1c-6.7,0-13.3,1.1-19.6,3.2c-14-25.7-40.8-41.9-70.7-41.9c-38.6,0-70.9,26.6-78.7,63.4
			c-1-0.1-1.9-0.1-2.9-0.1c-27,0-48.9,21.9-48.9,48.9S65,217.5,92,217.5h55.4v-18.7H92c-16.6,0-30.1-13.5-30.1-30.2
			s13.5-30.2,30.1-30.2c2.8,0,5.5,0.4,8.2,1.1l10.9,3l1-11.2c2.8-32.1,29.3-56.3,61.6-56.3c25.4,0,47.9,15.2,57.4,38.8l3.9,9.6
			l9.2-4.9c6.2-3.3,12.8-4.9,19.8-4.9c23.4,0,42.5,19.1,42.5,42.5s-19.1,42.5-42.5,42.5h-98.1v18.7h98.1c33.8,0,61.2-27.5,61.2-61.2
			C325.1,122.6,297.6,95.1,263.9,95.1z"/>
	</g>
</g>
</svg>
